<svg width="65" height="46" viewBox="0 0 65 46" fill="none" xmlns="http://www.w3.org/2000/svg">
<path d="M32.5 1C41.2922 1 49.2099 3.52354 54.9033 7.55273C60.5992 11.5837 64 17.0597 64 23C64 28.9403 60.5992 34.4163 54.9033 38.4473C49.2099 42.4765 41.2922 45 32.5 45C23.7078 45 15.7901 42.4765 10.0967 38.4473C4.40078 34.4163 1 28.9403 1 23C1 17.0597 4.40078 11.5837 10.0967 7.55273C15.7901 3.52354 23.7078 1 32.5 1Z" fill="#F2F2F2" stroke="#1D40B4" stroke-width="2"/>
<path d="M28.623 12.8555H25.916V26.3203C25.916 28.0312 25.5996 29.4727 24.9668 30.6445C23.8418 32.6602 21.9316 33.668 19.2363 33.668C18.0645 33.668 17.0684 33.4805 16.248 33.1055C15.0293 32.5195 14.4199 31.7227 14.4199 30.7148C14.4199 30.5039 14.4551 30.2812 14.5254 30.0469C14.8066 29.2734 15.3691 28.8867 16.2129 28.8867C16.6816 28.8867 17.0801 28.9805 17.4082 29.168C17.8535 29.4492 18.1699 30.0938 18.3574 31.1016C18.4043 31.3359 18.4512 31.5117 18.498 31.6289C18.6621 32.4023 19.0605 32.7891 19.6934 32.7891C20.0918 32.7891 20.4199 32.6602 20.6777 32.4023C21.3105 31.7695 21.627 29.8242 21.627 26.5664V12.8555H18.4629V11.9062H28.623V12.8555ZM48.0996 16.6523C48.0996 17.1445 48.0059 17.6484 47.8184 18.1641C47.209 19.7578 45.9199 20.8828 43.9512 21.5391C44.7012 21.6562 45.3926 21.832 46.0254 22.0664C48.3926 22.9336 49.5762 24.5391 49.5762 26.8828C49.5762 28.0781 49.2129 29.168 48.4863 30.1523C47.0801 32.0508 44.8066 33 41.666 33H30.2754V32.0508H33.0879V12.8555H30.2754V11.9062H41.209C42.6621 11.9062 43.9277 12.1055 45.0059 12.5039C47.0684 13.2773 48.0996 14.6602 48.0996 16.6523ZM39.5918 12.8555H37.4121V21.082H39.7676C40.4238 21.082 41.0098 20.9648 41.5254 20.7305C42.9082 20.1211 43.5996 18.8555 43.5996 16.9336C43.5762 14.2617 42.2402 12.9023 39.5918 12.8555ZM40.5762 22.0664H37.4121V32.0508H40.2949C41.1152 32.0508 41.8418 31.8984 42.4746 31.5938C44.0684 30.7734 44.8652 29.1562 44.8652 26.7422C44.8652 25.9922 44.748 25.3125 44.5137 24.7031C43.8574 22.9453 42.5449 22.0664 40.5762 22.0664Z" fill="#1D40B4"/>
</svg>
