<?xml version="1.0" encoding="UTF-8"?>
<svg id="Layer_2" data-name="Layer 2" xmlns="http://www.w3.org/2000/svg" viewBox="0 0 427.97 427.97">
  <defs>
    <style>
      .cls-1 {
        stroke-dasharray: 14;
      }

      .cls-1, .cls-2 {
        fill: none;
        stroke: #1d40b4;
        stroke-miterlimit: 10;
        stroke-width: 4px;
      }

      .cls-3 {
        fill: #1d40b4;
      }

      .cls-4 {
        fill: #f2f2f2;
      }
    </style>
  </defs>
  <g id="_ÎÓÈ_1" data-name="—ÎÓÈ_1">
    <rect class="cls-4" y="0" width="427.97" height="427.97" rx="50" ry="50"/>
    <g>
      <path class="cls-1" d="M159.8,179.55c-81.79-12.35-106.48-63.27-84.87-109.56S170.6-7.17,173.69,103.94s-55.55,219.13-69.44,248.45c-21.01,35.42-89.5,70.13-69.44-18.17,20.06-88.3,106.71-114.54,139-109.91s87.84,57.1,163.46,43.21,32.41-92.59,27.78-103.39c-4.63-10.8-48.16-38.13-77.16-15.43-29.99,26.81,7.47,49.2,33.95,27.78,25.61-17.32,40.51-57.02,45.48-106.74,2.37-41.8-53.2-70.73-94.86-2.83-41.66,67.9-83.33,200.61-91.05,223.76"/>
      <polygon class="cls-3" points="205.53 317.7 193.34 326.98 198.4 341.45 185.8 332.72 173.61 342 178.02 327.33 165.42 318.6 180.74 318.26 185.15 303.58 190.21 318.04 205.53 317.7"/>
      <path class="cls-2" d="M175.1,191.28c-81.79-12.35-106.48-63.27-84.87-109.56S185.9,4.56,188.99,115.66s-55.55,219.13-69.44,248.45c-21.01,35.42-89.5,70.13-69.44-18.17s106.71-114.54,139-109.91,87.84,57.1,163.46,43.21,32.41-92.59,27.78-103.39c-4.63-10.8-48.16-38.13-77.16-15.43-29.99,26.81,7.47,49.2,33.95,27.78,25.61-17.32,40.51-57.02,45.48-106.74,2.37-41.8-53.2-70.73-94.86-2.83-41.66,67.9-83.33,200.61-91.05,223.76"/>
    </g>
  </g>
</svg>