<?xml version="1.0" encoding="UTF-8"?>
<svg xmlns="http://www.w3.org/2000/svg" version="1.1" viewBox="0 0 1475 1391.6">
  <!-- Generator: Adobe Illustrator 30.2.1, SVG Export Plug-In . SVG Version: 2.1.1 Build 1)  -->
  <defs>
    <style>
      .st0, .st1 {
        fill: #081dc3;
      }

      .st2 {
        fill: #f9f7ef;
      }

      .st1, .st3 {
        stroke: #081dc3;
        stroke-linecap: round;
        stroke-linejoin: round;
        stroke-width: 15.9px;
      }

      .st3 {
        fill: none;
      }
    </style>
  </defs>
  <g id="Layer_1">
    <g>
      <path class="st3" d="M314.2,319.3c165.2-79.2,292.9,113.9,257.3,153.5-39.9,44.4-108.9-99.2-62.1-179.9,59.4-102.3,239.4-139.1,316.3-23.3,61.9,93.2,32.3,225.2-21.3,207-55.4-18.9,2.8-143.3,86.6-175.9,138.4-53.8,238,2.4,238,150.1s-105.1,201.1-135,148c-29.9-53,111.5-87.3,186.2-67.8,155.6,40.7,174.5,179.5,93.8,281.4-68.2,86.1-248.9,82.2-230.6,21.7,15.5-51.4,155.4,8.9,132.8,135.6-33.5,188.8-261.1,142.3-326.9,85.3-51.2-44.3-50.4-118.4-12.6-118.4s91.6,110.9,20.6,204.1c-61.4,80.7-201.7,103.1-279,15.9-75.4-85-39.2-236.1,9.4-221.3,54.2,16.5-8.1,143.7-92.6,159.1-151.6,27.6-276.6-118.4-153.4-277,41-52.8,124.3-78.9,136.6-40.5,9.1,28.7-54.5,72.9-156.5,68.8-141.8-5.7-171.9-176.2-75.6-262,89.9-80.2,201.8-38,182.2-1.9-26,48.1-149-2.1-177.2-64-19.6-43.1-18.7-159.4,63-198.5Z"/>
      <path class="st3" d="M646.2,739.1c7.3,40.4,124.8,112.4,183.5-7.3"/>
      <circle class="st0" cx="729.1" cy="691.4" r="7.7" transform="translate(-111.4 1242.1) rotate(-76.7)"/>
      <ellipse class="st0" cx="633.2" cy="625.6" rx="28" ry="25.6"/>
      <ellipse class="st0" cx="835.2" cy="628.9" rx="30.1" ry="27.6"/>
    </g>
  </g>
  <g id="Layer_2">
    <g>
      <path class="st3" d="M-9053.7-3280.8c-278.5,13.8-439.4,273.4-504.9,420.6-65.5,147.2-110.2,489.5,2.2,547.7,122.3,63.4,200.9-111.8,200.9-111.8,0,0,15.6,209.8,137.1,212.4,150.7,3.2,187.8-191.7,187.8-191.7,0,0,28.5,173.6,156.8,165.4,141.1-9.1,165-221.1,165-221.1,0,0,83.7,143,191.5,54.9,107.8-88.1,60.3-323.9-21.4-523.8-93.2-227.9-305-362.9-514.9-352.5Z"/>
      <path class="st1" d="M-9188.5-3008.7c.9-5.8,6.4-9.7,12.2-8.8,5.8.9,9.7,6.4,8.8,12.2s-6.4,9.7-12.2,8.8c-5.8-.9-9.7-6.4-8.8-12.2Z"/>
      <path class="st1" d="M-9042.2-3006.8c1.1-6.7,7.4-11.3,14.1-10.2,6.7,1.1,11.3,7.4,10.2,14.1-1.1,6.7-7.4,11.3-14.1,10.2-6.7-1.1-11.3-7.4-10.2-14.1Z"/>
      <path class="st3" d="M-9087.8-3057.2c-18.4,57.3-50.1,130-34.8,135"/>
      <path class="st3" d="M-9246.2-2914.8c23.8,138.3,270.4,144.4,316.9-18.6"/>
    </g>
  </g>
  <g id="Layer_3">
    <g>
      <path class="st0" d="M-7767.6,709.5s270.3-68.4,254.4-146.2c-17.7-86.3-291.5,35.5-291.5,35.5,0,0,236.9-174.5,195.9-239.9-41.1-65.3-262.5,144-262.5,144,0,0,98.4-243.5,23.2-279.9-65.9-31.9-152,263.1-152,263.1,0,0-40.7-263.3-132.8-257.9-75.2,4.4,16.4,310.9,16.4,310.9,0,0-158.4-226.8-237.1-148.1-78.8,78.8,230.7,279.1,230.7,279.1,0,0-299.6-139.2-330.4-22.9-23,87,267,115.3,267,115.3,0,0-272.8,11.8-252.7,105,20.3,94.1,302-16.3,302-16.3,0,0-220.4,111.6-179.3,193.3,29.9,59.4,145.5-25,224.6-93.3-12.9,107.7-31.7,284.1-10,295.2,31.4,16.2,168.4,26.2,163.3,1.7-5.2-24.5-86.7-33.8-89.2-59.7-2.4-24.8,43.8-259.4,53.5-313.3l17-2c22.4,79.2,98.9,375.7,128.6,377.9,35.2,2.7,165.4-41.3,151.1-61.8s-93,2.6-105.4-20.4c-9.1-16.9-43.5-157.4-64.7-245.8,49.2,53.2,125.8,118.6,177.8,79.3,81.9-62-116.8-195.3-116.8-195.3,0,0,277.3,93.8,304.6-1.7,28.9-101.4-285.5-96.1-285.5-96.1Z"/>
      <g>
        <path class="st2" d="M-8020.7,679.3c16.6,0,30.1-15.9,30.1-35.6s-13.5-35.6-30.1-35.6-30.1,15.9-30.1,35.6,13.5,35.6,30.1,35.6Z"/>
        <ellipse class="st2" cx="-7917.3" cy="645.5" rx="29.2" ry="33.8"/>
        <path class="st2" d="M-7881.4,711.1c-13.5-22-46.3,23.9-84.9,22.4-43.2-1.7-64.4-40.6-87.7-21.5-19,15.5,25.8,81.9,74.1,76.8,65.5,3.3,112.1-55.7,98.6-77.7Z"/>
      </g>
    </g>
  </g>
  <g id="Layer_4">
    <g>
      <path class="st3" d="M-6261-3171.6c0-174.5,140.5-316,313.7-316s313.7,126.6,313.7,316-140.5,316-313.7,316-313.7-141.5-313.7-316Z"/>
      <g>
        <path class="st3" d="M-6037.8-3196.4c5.8-58.5,29.6-99.8,53.3-97.4,23.6,2.3,38.1,47.4,32.3,105.9-5.8,58.5-29.6,97.6-53.3,95.3-23.6-2.3-38.1-45.2-32.3-103.7Z"/>
        <ellipse class="st0" cx="-5972.2" cy="-3187.2" rx="46.2" ry="25.8" transform="translate(-2081.8 -8727.2) rotate(-83)"/>
        <path class="st3" d="M-5909-3208.5c5.8-58.5,29.6-99.8,53.3-97.4,23.6,2.3,38.1,47.4,32.3,105.9-5.8,58.5-29.6,97.6-53.3,95.3-23.6-2.3-38.1-45.2-32.3-103.7Z"/>
        <ellipse class="st0" cx="-5843.5" cy="-3199.4" rx="46.2" ry="25.8" transform="translate(-1956.7 -8610) rotate(-83)"/>
        <path class="st3" d="M-6139.8-3172.4c22.6,222.8,320.3,258.5,392-.6"/>
        <path class="st3" d="M-6166.1-3147.3c9.1-16.5,27.2-35.1,35.7-23.1"/>
        <path class="st3" d="M-5729-3151.7c-9.1-16.5-27.2-35.1-35.7-23.1"/>
      </g>
      <path class="st3" d="M-6132.7-3474.2s-61.9-286.2,38.6-286.2,123.2,250.3,123.2,250.3c0,0,63.1-283.8,162.8-249.3,83.9,29.1,16.9,271.1,16.9,271.1,0,0,185.8-255.7,251.3-166.4,59.3,80.9-120.4,236.9-120.4,236.9,0,0,269.1-171,303.7-83.4,33.2,84.1-244.6,211.7-244.6,211.7,0,0,298-68,288.8,37.2-8.4,95.4-283.6,84.7-283.6,84.7,0,0,297.3,60.4,246.4,159.1-44.8,86.9-281.1-34.7-281.1-34.7,0,0,194.4,209.5,106.5,277.2-72.4,55.8-219.5-114.2-219.5-114.2,0,0,97.9,170.7,9.3,222-88.6,51.3-169.7-164.3-169.7-164.3,0,0,58.5,281.4-52.6,279.8-100.7-1.5-55.2-274.6-55.2-274.6,0,0-58.2,228.9-141.1,186.3-79.1-40.6,20.5-222.3,20.5-222.3,0,0-137.7,184.9-200.2,107.8-59-72.8,77-178.4,77-178.4,0,0-208.2,145-249.5,43.5-38.8-95.4,216.1-133.3,216.1-133.3,0,0-309.9,51.5-299-70.6,10.1-113.2,248.4-78.4,248.4-78.4,0,0-319.3-76.5-235.5-201.3,85.9-128,292.6,44.9,292.6,44.9,0,0-169.2-260.2-79.2-313.9,100.2-59.9,229.2,158.7,229.2,158.7Z"/>
    </g>
  </g>
  <g id="Layer_5">
    <g>
      <path class="st3" d="M-1588.4,514.9l15-206.6c1.1-15.8,20.8-22.4,31.3-10.5l130.7,148.5,64.3-138.9c6.8-14.6,27.9-13.5,33.2,1.7l56.6,164.9,256.9-142.1c16.8-9.3,34.5,10.8,23.1,26.3l-151.2,204.9,317.3,9.4c19.4.6,24.1,27.4,6,34.5l-264.3,104.1,238.4,102.7c18.3,7.9,11.9,35.3-8,34.3l-278.6-14.2,124,200.5c10.5,16.9-10.4,35.7-26.1,23.6l-179.7-138.6-3,237.9c-.2,17-21.9,24.2-32.2,10.6l-151.5-200.3-112.6,225.2c-7.8,15.5-30.8,12-33.6-5.1l-43.9-264.6-260.9,137.4c-16,8.4-33-9.6-23.6-25.1l106.4-176.1-179.2-52.8c-16.3-4.8-17.4-27.4-1.6-33.8l207.3-83.1-129.1-187c-8.9-13,2-30.3,17.6-27.8l251.1,40.3Z"/>
      <path class="st3" d="M-1549.9,629.2c-114.5,306.4,289.5,335.3,326.2,72.5"/>
      <ellipse class="st0" cx="-1438.1" cy="615.3" rx="40.6" ry="17.2" transform="translate(-1743.9 -918.7) rotate(-78.1)"/>
      <ellipse class="st0" cx="-1310.2" cy="629.2" rx="40.6" ry="17.2" transform="translate(-1656 -782.5) rotate(-78.1)"/>
    </g>
  </g>
  <g id="Layer_6">
    <g>
      <path class="st3" d="M-8656.9-5866.7s-6.6-213.7,28-315.2c31.3-91.8,86.7-134.9,158.4-105,59.8,25,55.9,107.2,23.9,186.6-44,109.1-98.6,226.6-98.6,226.6,0,0,95-201.3,206.9-272.6,103-65.6,196.3,32.2,115.9,148-52.1,75-226.7,185.7-226.7,185.7,0,0,255-164.9,347.5-156.4,105.4,9.7,95.4,112.5,27.7,161.1-89.9,64.6-300.2,52.1-300.2,52.1,0,0,241,18.2,294.2,123.1,53.2,104.9-9,152-109.1,126.8-74.4-18.7-211.7-163.9-211.7-163.9,0,0,126.4,142.4,132.2,277.8,4.6,108.5-125.2,147.4-184.9,6.4-53.7-127-52.3-222.3-52.3-222.3,0,0,49.5,442.9-90.2,404.5-139.2-38.2-25-368.1-25-368.1,0,0-132.7,384.6-257.6,279.4-121.5-102.4,162.7-335.4,162.7-335.4,0,0-108.7,116.8-246.4,134-137.7,17.2-167.8-117.8-72.2-159.5,95.6-41.7,301.7-46.4,301.7-46.4,0,0-275.7-6-362.6-86.1-67-61.8-22-194.6,88-197.9,85.8-2.5,263,174.7,263,174.7,0,0-164.3-139.9-183.8-312.8-13.6-120.6,133.2-170,201.4-67.6,48.9,73.4,69.8,322.5,69.8,322.5Z"/>
      <path class="st3" d="M-8643.9-5733.3c29.7,73.1,139.4,58.3,152.1-19.4"/>
      <path class="st0" d="M-8621-5778.5c.8-4.7,5.3-8,10-7.2,4.7.8,8,5.3,7.2,10-.8,4.7-5.3,8-10,7.2-4.7-.8-8-5.3-7.2-10Z"/>
      <path class="st0" d="M-8548.8-5785.6c.8-4.9,5.4-8.2,10.3-7.4s8.2,5.4,7.4,10.3c-.8,4.9-5.4,8.2-10.3,7.4-4.9-.8-8.2-5.4-7.4-10.3Z"/>
    </g>
  </g>
</svg>