<?xml version="1.0" encoding="UTF-8"?>
<svg id="Layer_2" data-name="Layer 2" xmlns="http://www.w3.org/2000/svg" viewBox="0 0 369.64 379.27">
  <defs>
    <style>
      .cls-1 {
        stroke-dasharray: 14;
      }

      .cls-1, .cls-2 {
        fill: none;
        stroke: #1d40b4;
        stroke-miterlimit: 10;
        stroke-width: 4px;
      }

      .cls-3 {
        fill: #1d40b4;
      }
    </style>
  </defs>
  <g id="_ÎÓÈ_1" data-name="—ÎÓÈ_1">
    <path class="cls-1" d="M130.63,155.2c-81.79-12.35-106.48-63.27-84.87-109.56s95.67-77.16,98.76,33.95-55.55,219.13-69.44,248.45c-21.01,35.42-89.5,70.13-69.44-18.17s106.71-114.54,139-109.91,87.84,57.1,163.46,43.21,32.41-92.59,27.78-103.39c-4.63-10.8-48.16-38.13-77.16-15.43-29.99,26.81,7.47,49.2,33.95,27.78,25.61-17.32,40.51-57.02,45.48-106.74,2.37-41.8-53.2-70.73-94.86-2.83-41.66,67.9-83.33,200.61-91.05,223.76"/>
    <polygon class="cls-3" points="176.37 293.35 164.18 302.63 169.24 317.1 156.64 308.37 144.45 317.66 148.85 302.98 136.26 294.25 151.58 293.91 155.99 279.23 161.05 293.69 176.37 293.35"/>
    <path class="cls-2" d="M145.93,166.93c-81.79-12.35-106.48-63.27-84.87-109.56s95.67-77.16,98.76,33.95-55.55,219.13-69.44,248.45c-21.01,35.42-89.5,70.13-69.44-18.17s106.71-114.54,139-109.91,87.84,57.1,163.46,43.21,32.41-92.59,27.78-103.39c-4.63-10.8-48.16-38.13-77.16-15.43-29.99,26.81,7.47,49.2,33.95,27.78,25.61-17.32,40.51-57.02,45.48-106.74,2.37-41.8-53.2-70.73-94.86-2.83-41.66,67.9-83.33,200.61-91.05,223.76"/>
  </g>
</svg>