<svg width="80" height="59" viewBox="0 0 80 59" fill="none" xmlns="http://www.w3.org/2000/svg">
<mask id="path-1-outside-1_2363_10755" maskUnits="userSpaceOnUse" x="-0.275391" y="-0.555664" width="80" height="59" fill="black">
<rect fill="white" x="-0.275391" y="-0.555664" width="80" height="59"/>
<path d="M8.4438 57.6403C6.96913 57.6403 5.66246 57.4163 4.5238 56.9683C3.36646 56.539 2.46113 55.9417 1.8078 55.1763C1.1358 54.4297 0.799797 53.599 0.799797 52.6843C0.799797 51.7323 1.11713 50.9763 1.7518 50.4163C2.38646 49.8563 3.1518 49.5763 4.0478 49.5763C4.8878 49.5763 5.52246 49.763 5.9518 50.1363C6.36246 50.5097 6.67046 50.967 6.8758 51.5083C7.08113 52.0683 7.27713 52.6283 7.4638 53.1883C7.65046 53.7483 7.93046 54.215 8.3038 54.5883C8.65846 54.9617 9.21846 55.1483 9.9838 55.1483C10.7865 55.1483 11.5425 54.831 12.2518 54.1963C12.9425 53.5617 13.6985 52.479 14.5198 50.9483C15.3225 49.4177 16.2838 47.3083 17.4038 44.6203L34.5958 3.37633L30.1158 2.28434L30.7598 0.800333H47.7278L47.0558 2.28434L41.8198 3.34833L24.9638 43.8643C23.8065 46.7017 22.3598 49.147 20.6238 51.2003C18.9065 53.2723 17.0118 54.859 14.9398 55.9603C12.8678 57.0803 10.7025 57.6403 8.4438 57.6403ZM34.2545 43.4443L34.8425 41.9603L39.7705 40.8963L55.4225 3.32033L50.9985 2.25633L51.5865 0.800333H65.1665C69.4785 0.800333 72.8199 1.56567 75.1905 3.09633C77.5799 4.60833 78.7745 6.727 78.7745 9.45233C78.7745 11.3377 78.2145 13.0923 77.0946 14.7163C75.9932 16.3403 74.4159 17.7123 72.3625 18.8323C70.3092 19.9523 67.8919 20.7177 65.1105 21.1283V21.3803C67.6492 21.903 69.5532 22.9483 70.8225 24.5163C72.1105 26.0657 72.7545 28.0163 72.7545 30.3683C72.7545 32.9443 71.9892 35.2217 70.4585 37.2003C68.9279 39.1603 66.7812 40.691 64.0185 41.7923C61.2559 42.8937 58.0265 43.4443 54.3305 43.4443H34.2545ZM52.0345 41.0643C54.9652 41.0643 57.4479 40.5977 59.4825 39.6643C61.5172 38.731 63.0665 37.387 64.1305 35.6323C65.2132 33.8777 65.7545 31.7777 65.7545 29.3323C65.7732 26.8123 65.1292 24.9643 63.8225 23.7883C62.5345 22.5937 60.5652 21.9963 57.9145 21.9963H54.6945L48.7305 36.3883C48.2452 37.583 48.0025 38.4977 48.0025 39.1323C48.0025 39.823 48.3105 40.3177 48.9265 40.6163C49.5612 40.915 50.5972 41.0643 52.0345 41.0643ZM55.7025 19.5603H60.1265C63.8225 19.5603 66.7159 18.683 68.8065 16.9283C70.8972 15.155 71.9425 12.747 71.9425 9.70433C71.9425 5.411 69.5905 3.26433 64.8865 3.26433H62.5345L55.7025 19.5603Z"/>
</mask>
<path d="M8.4438 57.6403C6.96913 57.6403 5.66246 57.4163 4.5238 56.9683C3.36646 56.539 2.46113 55.9417 1.8078 55.1763C1.1358 54.4297 0.799797 53.599 0.799797 52.6843C0.799797 51.7323 1.11713 50.9763 1.7518 50.4163C2.38646 49.8563 3.1518 49.5763 4.0478 49.5763C4.8878 49.5763 5.52246 49.763 5.9518 50.1363C6.36246 50.5097 6.67046 50.967 6.8758 51.5083C7.08113 52.0683 7.27713 52.6283 7.4638 53.1883C7.65046 53.7483 7.93046 54.215 8.3038 54.5883C8.65846 54.9617 9.21846 55.1483 9.9838 55.1483C10.7865 55.1483 11.5425 54.831 12.2518 54.1963C12.9425 53.5617 13.6985 52.479 14.5198 50.9483C15.3225 49.4177 16.2838 47.3083 17.4038 44.6203L34.5958 3.37633L30.1158 2.28434L30.7598 0.800333H47.7278L47.0558 2.28434L41.8198 3.34833L24.9638 43.8643C23.8065 46.7017 22.3598 49.147 20.6238 51.2003C18.9065 53.2723 17.0118 54.859 14.9398 55.9603C12.8678 57.0803 10.7025 57.6403 8.4438 57.6403ZM34.2545 43.4443L34.8425 41.9603L39.7705 40.8963L55.4225 3.32033L50.9985 2.25633L51.5865 0.800333H65.1665C69.4785 0.800333 72.8199 1.56567 75.1905 3.09633C77.5799 4.60833 78.7745 6.727 78.7745 9.45233C78.7745 11.3377 78.2145 13.0923 77.0946 14.7163C75.9932 16.3403 74.4159 17.7123 72.3625 18.8323C70.3092 19.9523 67.8919 20.7177 65.1105 21.1283V21.3803C67.6492 21.903 69.5532 22.9483 70.8225 24.5163C72.1105 26.0657 72.7545 28.0163 72.7545 30.3683C72.7545 32.9443 71.9892 35.2217 70.4585 37.2003C68.9279 39.1603 66.7812 40.691 64.0185 41.7923C61.2559 42.8937 58.0265 43.4443 54.3305 43.4443H34.2545ZM52.0345 41.0643C54.9652 41.0643 57.4479 40.5977 59.4825 39.6643C61.5172 38.731 63.0665 37.387 64.1305 35.6323C65.2132 33.8777 65.7545 31.7777 65.7545 29.3323C65.7732 26.8123 65.1292 24.9643 63.8225 23.7883C62.5345 22.5937 60.5652 21.9963 57.9145 21.9963H54.6945L48.7305 36.3883C48.2452 37.583 48.0025 38.4977 48.0025 39.1323C48.0025 39.823 48.3105 40.3177 48.9265 40.6163C49.5612 40.915 50.5972 41.0643 52.0345 41.0643ZM55.7025 19.5603H60.1265C63.8225 19.5603 66.7159 18.683 68.8065 16.9283C70.8972 15.155 71.9425 12.747 71.9425 9.70433C71.9425 5.411 69.5905 3.26433 64.8865 3.26433H62.5345L55.7025 19.5603Z" fill="#F2F2F2"/>
<path d="M4.5238 56.9683L4.8167 56.2239L4.8094 56.221L4.80204 56.2183L4.5238 56.9683ZM1.8078 55.1763L2.41625 54.6569L2.40944 54.649L2.40243 54.6412L1.8078 55.1763ZM1.7518 50.4163L1.2225 49.8165V49.8165L1.7518 50.4163ZM5.9518 50.1363L6.48993 49.5444L6.4834 49.5384L6.47674 49.5326L5.9518 50.1363ZM6.8758 51.5083L7.62694 51.2329L7.62379 51.2246L6.8758 51.5083ZM7.4638 53.1883L8.22274 52.9354V52.9354L7.4638 53.1883ZM8.3038 54.5883L8.8838 54.0373L8.87673 54.0299L8.86948 54.0227L8.3038 54.5883ZM12.2518 54.1963L12.7853 54.7926L12.7931 54.7854L12.2518 54.1963ZM14.5198 50.9483L15.2248 51.3266L15.2283 51.3199L14.5198 50.9483ZM17.4038 44.6203L16.6654 44.3125L16.6653 44.3126L17.4038 44.6203ZM34.5958 3.37633L35.3342 3.68413L35.6942 2.82063L34.7852 2.59909L34.5958 3.37633ZM30.1158 2.28434L29.3819 1.96586L29.004 2.83675L29.9263 3.06158L30.1158 2.28434ZM30.7598 0.800331V0.000331879H30.2349L30.0259 0.481857L30.7598 0.800331ZM47.7278 0.800331L48.4566 1.13034L48.9683 0.000331879H47.7278V0.800331ZM47.0558 2.28434L47.2151 3.06831L47.6159 2.98687L47.7846 2.61434L47.0558 2.28434ZM41.8198 3.34834L41.6605 2.56436L41.2443 2.64893L41.0812 3.04104L41.8198 3.34834ZM24.9638 43.8643L24.2252 43.557L24.223 43.5622L24.9638 43.8643ZM20.6238 51.2003L20.0128 50.6838L20.0079 50.6898L20.6238 51.2003ZM14.9398 55.9603L14.5643 55.2539L14.5594 55.2566L14.9398 55.9603ZM8.4438 57.6403V56.8403C7.04934 56.8403 5.84508 56.6285 4.8167 56.2239L4.5238 56.9683L4.2309 57.7128C5.47985 58.2042 6.88892 58.4403 8.4438 58.4403V57.6403ZM4.5238 56.9683L4.80204 56.2183C3.7439 55.8257 2.963 55.2974 2.41625 54.6569L1.8078 55.1763L1.19935 55.6957C1.95926 56.5859 2.98903 57.2523 4.24555 57.7184L4.5238 56.9683ZM1.8078 55.1763L2.40243 54.6412C1.84859 54.0258 1.5998 53.3813 1.5998 52.6843H0.799797H-0.000204086C-0.000204086 53.8167 0.423004 54.8336 1.21316 55.7115L1.8078 55.1763ZM0.799797 52.6843H1.5998C1.5998 51.93 1.8411 51.4044 2.28109 51.0162L1.7518 50.4163L1.2225 49.8165C0.39316 50.5482 -0.000204086 51.5347 -0.000204086 52.6843H0.799797ZM1.7518 50.4163L2.28109 51.0162C2.76053 50.5932 3.33427 50.3763 4.0478 50.3763V49.5763V48.7763C2.96932 48.7763 2.0124 49.1195 1.2225 49.8165L1.7518 50.4163ZM4.0478 49.5763V50.3763C4.78444 50.3763 5.19885 50.5418 5.42685 50.74L5.9518 50.1363L6.47674 49.5326C5.84608 48.9843 4.99115 48.7763 4.0478 48.7763V49.5763ZM5.9518 50.1363L5.41366 50.7283C5.727 51.0131 5.96517 51.3633 6.1278 51.7921L6.8758 51.5083L7.62379 51.2246C7.37576 50.5707 6.99792 50.0062 6.48993 49.5444L5.9518 50.1363ZM6.8758 51.5083L6.1247 51.7837C6.32733 52.3364 6.52071 52.8889 6.70485 53.4413L7.4638 53.1883L8.22274 52.9354C8.03355 52.3678 7.83493 51.8003 7.6269 51.2329L6.8758 51.5083ZM7.4638 53.1883L6.70485 53.4413C6.9261 54.1051 7.26705 54.683 7.73811 55.154L8.3038 54.5883L8.86948 54.0227C8.59388 53.747 8.37482 53.3916 8.22274 52.9354L7.4638 53.1883ZM8.3038 54.5883L7.7238 55.1393C8.28986 55.7352 9.10578 55.9483 9.9838 55.9483V55.1483V54.3483C9.33115 54.3483 9.02706 54.1881 8.8838 54.0373L8.3038 54.5883ZM9.9838 55.1483V55.9483C11.0188 55.9483 11.958 55.5327 12.7852 54.7925L12.2518 54.1963L11.7184 53.6001C11.1269 54.1293 10.5541 54.3483 9.9838 54.3483V55.1483ZM12.2518 54.1963L12.7931 54.7854C13.5839 54.0587 14.3907 52.8809 15.2247 51.3266L14.5198 50.9483L13.8149 50.5701C13.0062 52.0771 12.301 53.0646 11.7105 53.6073L12.2518 54.1963ZM14.5198 50.9483L15.2283 51.3199C16.0467 49.7591 17.0184 47.6252 18.1423 44.928L17.4038 44.6203L16.6653 44.3126C15.5492 46.9914 14.5982 49.0763 13.8113 50.5768L14.5198 50.9483ZM17.4038 44.6203L18.1422 44.9281L35.3342 3.68413L34.5958 3.37633L33.8574 3.06853L16.6654 44.3125L17.4038 44.6203ZM34.5958 3.37633L34.7852 2.59909L30.3053 1.50709L30.1158 2.28434L29.9263 3.06158L34.4063 4.15358L34.5958 3.37633ZM30.1158 2.28434L30.8497 2.60281L31.4937 1.11881L30.7598 0.800331L30.0259 0.481857L29.3819 1.96586L30.1158 2.28434ZM30.7598 0.800331V1.60033H47.7278V0.800331V0.000331879H30.7598V0.800331ZM47.7278 0.800331L46.999 0.470325L46.327 1.95433L47.0558 2.28434L47.7846 2.61434L48.4566 1.13034L47.7278 0.800331ZM47.0558 2.28434L46.8965 1.50036L41.6605 2.56436L41.8198 3.34834L41.9791 4.13231L47.2151 3.06831L47.0558 2.28434ZM41.8198 3.34834L41.0812 3.04104L24.2252 43.557L24.9638 43.8643L25.7024 44.1716L42.5584 3.65563L41.8198 3.34834ZM24.9638 43.8643L24.223 43.5622C23.0931 46.3324 21.6876 48.7029 20.0129 50.6838L20.6238 51.2003L21.2347 51.7168C23.032 49.5911 24.5198 47.071 25.7045 44.1665L24.9638 43.8643ZM20.6238 51.2003L20.0079 50.6898C18.3474 52.6932 16.5316 54.2082 14.5643 55.2539L14.9398 55.9603L15.3153 56.6667C17.492 55.5098 19.4655 53.8515 21.2397 51.7108L20.6238 51.2003ZM14.9398 55.9603L14.5594 55.2566C12.599 56.3162 10.5639 56.8403 8.4438 56.8403V57.6403V58.4403C10.8411 58.4403 13.1365 57.8445 15.3202 56.6641L14.9398 55.9603ZM34.2545 43.4443L33.5108 43.1496L33.0771 44.2443H34.2545V43.4443ZM34.8425 41.9603L34.6737 41.1784L34.2562 41.2685L34.0988 41.6656L34.8425 41.9603ZM39.7705 40.8963L39.9394 41.6783L40.3482 41.59L40.509 41.2039L39.7705 40.8963ZM55.4225 3.32034L56.161 3.62795L56.5218 2.76189L55.6096 2.54251L55.4225 3.32034ZM50.9985 2.25633L50.2568 1.95676L49.9093 2.81717L50.8115 3.03415L50.9985 2.25633ZM51.5865 0.800331V0.000331879H51.0469L50.8448 0.500763L51.5865 0.800331ZM75.1906 3.09633L74.7566 3.76844L74.7628 3.77235L75.1906 3.09633ZM77.0946 14.7163L76.436 14.2621L76.4324 14.2673L77.0946 14.7163ZM65.1105 21.1283L64.9937 20.3369L64.3105 20.4378V21.1283H65.1105ZM65.1105 21.3803H64.3105V22.0324L64.9492 22.1639L65.1105 21.3803ZM70.8225 24.5163L70.2007 25.0197L70.2074 25.0278L70.8225 24.5163ZM70.4585 37.2003L71.0891 37.6927L71.0913 37.6898L70.4585 37.2003ZM64.0185 41.7923L63.7223 41.0492V41.0492L64.0185 41.7923ZM59.4825 39.6643L59.8161 40.3915V40.3915L59.4825 39.6643ZM64.1305 35.6323L63.4497 35.2122L63.4465 35.2175L64.1305 35.6323ZM65.7545 29.3323L64.9545 29.3264V29.3323H65.7545ZM63.8225 23.7883L63.2785 24.3749L63.2874 24.383L63.8225 23.7883ZM54.6945 21.9963V21.1963H54.1601L53.9555 21.6901L54.6945 21.9963ZM48.7305 36.3883L47.9915 36.0821L47.9894 36.0872L48.7305 36.3883ZM48.9265 40.6163L48.5775 41.3362L48.5859 41.3402L48.9265 40.6163ZM55.7025 19.5603L54.9648 19.251L54.4997 20.3603H55.7025V19.5603ZM68.8065 16.9283L69.3208 17.5411L69.324 17.5384L68.8065 16.9283ZM62.5345 3.26434V2.46433H62.0025L61.7968 2.95502L62.5345 3.26434ZM34.2545 43.4443L34.9983 43.739L35.5863 42.255L34.8425 41.9603L34.0988 41.6656L33.5108 43.1496L34.2545 43.4443ZM34.8425 41.9603L35.0114 42.7423L39.9394 41.6783L39.7705 40.8963L39.6017 40.1144L34.6737 41.1784L34.8425 41.9603ZM39.7705 40.8963L40.509 41.2039L56.161 3.62795L55.4225 3.32034L54.6841 3.01272L39.0321 40.5887L39.7705 40.8963ZM55.4225 3.32034L55.6096 2.54251L51.1856 1.47851L50.9985 2.25633L50.8115 3.03415L55.2355 4.09815L55.4225 3.32034ZM50.9985 2.25633L51.7403 2.5559L52.3283 1.0999L51.5865 0.800331L50.8448 0.500763L50.2568 1.95676L50.9985 2.25633ZM51.5865 0.800331V1.60033H65.1665V0.800331V0.000331879H51.5865V0.800331ZM65.1665 0.800331V1.60033C69.4001 1.60033 72.5667 2.35445 74.7566 3.76841L75.1906 3.09633L75.6245 2.42425C73.0731 0.776878 69.557 0.000331879 65.1665 0.000331879V0.800331ZM75.1906 3.09633L74.7628 3.77235C76.9309 5.14436 77.9745 7.01347 77.9745 9.45233H78.7746H79.5745C79.5745 6.44053 78.2289 4.07231 75.6183 2.42032L75.1906 3.09633ZM78.7746 9.45233H77.9745C77.9745 11.1676 77.4684 12.7651 76.436 14.2621L77.0946 14.7163L77.7531 15.1705C78.9607 13.4195 79.5745 11.5077 79.5745 9.45233H78.7746ZM77.0946 14.7163L76.4324 14.2673C75.4151 15.7674 73.9423 17.0594 71.9795 18.13L72.3625 18.8323L72.7456 19.5347C74.8895 18.3653 76.5713 16.9132 77.7567 15.1653L77.0946 14.7163ZM72.3625 18.8323L71.9795 18.13C70.0238 19.1968 67.7001 19.9373 64.9937 20.3369L65.1105 21.1283L65.2274 21.9198C68.0837 21.498 70.5947 20.7079 72.7456 19.5347L72.3625 18.8323ZM65.1105 21.1283H64.3105V21.3803H65.1105H65.9105V21.1283H65.1105ZM65.1105 21.3803L64.9492 22.1639C67.3591 22.6601 69.0777 23.6323 70.2008 25.0197L70.8225 24.5163L71.4443 24.013C70.0288 22.2643 67.9393 21.1459 65.2719 20.5968L65.1105 21.3803ZM70.8225 24.5163L70.2074 25.0278C71.3565 26.41 71.9545 28.1703 71.9545 30.3683H72.7545H73.5546C73.5546 27.8624 72.8646 25.7213 71.4377 24.0049L70.8225 24.5163ZM72.7545 30.3683H71.9545C71.9545 32.7728 71.2446 34.8767 69.8258 36.7108L70.4585 37.2003L71.0913 37.6898C72.7338 35.5666 73.5546 33.1158 73.5546 30.3683H72.7545ZM70.4585 37.2003L69.828 36.7079C68.4003 38.5361 66.3792 39.99 63.7223 41.0492L64.0185 41.7923L64.3148 42.5355C67.1833 41.392 69.4555 39.7845 71.0891 37.6927L70.4585 37.2003ZM64.0185 41.7923L63.7223 41.0492C61.0737 42.1051 57.9489 42.6443 54.3305 42.6443V43.4443V44.2443C58.1042 44.2443 61.4381 43.6823 64.3148 42.5355L64.0185 41.7923ZM54.3305 43.4443V42.6443H34.2545V43.4443V44.2443H54.3305V43.4443ZM52.0345 41.0643V41.8643C55.0463 41.8643 57.6497 41.3852 59.8161 40.3915L59.4825 39.6643L59.149 38.9372C57.246 39.8101 54.8841 40.2643 52.0345 40.2643V41.0643ZM59.4825 39.6643L59.8161 40.3915C61.9824 39.3978 63.6601 37.9511 64.8146 36.0471L64.1305 35.6323L63.4465 35.2175C62.473 36.8229 61.052 38.0642 59.149 38.9372L59.4825 39.6643ZM64.1305 35.6323L64.8114 36.0524C65.9854 34.1497 66.5546 31.8981 66.5546 29.3323H65.7545H64.9545C64.9545 31.6572 64.441 33.6057 63.4497 35.2122L64.1305 35.6323ZM65.7545 29.3323L66.5545 29.3383C66.5741 26.6911 65.8978 24.5797 64.3577 23.1937L63.8225 23.7883L63.2874 24.383C64.3607 25.3489 64.9723 26.9335 64.9546 29.3264L65.7545 29.3323ZM63.8225 23.7883L64.3666 23.2018C62.8708 21.8144 60.6669 21.1963 57.9146 21.1963V21.9963V22.7963C60.4635 22.7963 62.1983 23.373 63.2785 24.3749L63.8225 23.7883ZM57.9146 21.9963V21.1963H54.6945V21.9963V22.7963H57.9146V21.9963ZM54.6945 21.9963L53.9555 21.6901L47.9915 36.0821L48.7305 36.3883L49.4696 36.6946L55.4336 22.3026L54.6945 21.9963ZM48.7305 36.3883L47.9894 36.0872C47.4969 37.2994 47.2025 38.3346 47.2025 39.1323H48.0025H48.8025C48.8025 38.6607 48.9935 37.8666 49.4717 36.6894L48.7305 36.3883ZM48.0025 39.1323H47.2025C47.2025 39.5991 47.3078 40.0481 47.5544 40.4442C47.8013 40.8407 48.1578 41.1327 48.5775 41.3362L48.9265 40.6163L49.2756 39.8965C49.0793 39.8013 48.9738 39.6967 48.9127 39.5985C48.8513 39.4999 48.8025 39.3562 48.8025 39.1323H48.0025ZM48.9265 40.6163L48.5859 41.3402C49.3899 41.7186 50.5777 41.8643 52.0345 41.8643V41.0643V40.2643C50.6168 40.2643 49.7325 40.1114 49.2672 39.8925L48.9265 40.6163ZM55.7025 19.5603V20.3603H60.1265V19.5603V18.7603H55.7025V19.5603ZM60.1265 19.5603V20.3603C63.9439 20.3603 67.0421 19.4536 69.3208 17.5411L68.8065 16.9283L68.2923 16.3156C66.3896 17.9124 63.7012 18.7603 60.1265 18.7603V19.5603ZM68.8065 16.9283L69.324 17.5384C71.615 15.5952 72.7426 12.9529 72.7426 9.70433H71.9426H71.1425C71.1425 12.5411 70.1795 14.7148 68.2891 16.3182L68.8065 16.9283ZM71.9426 9.70433H72.7426C72.7426 7.41458 72.112 5.55587 70.7178 4.28344C69.3376 3.02366 67.3447 2.46433 64.8866 2.46433V3.26434V4.06433C67.1324 4.06433 68.6675 4.57834 69.6392 5.46523C70.5971 6.33947 71.1425 7.70076 71.1425 9.70433H71.9426ZM64.8866 3.26434V2.46433H62.5345V3.26434V4.06433H64.8866V3.26434ZM62.5345 3.26434L61.7968 2.95502L54.9648 19.251L55.7025 19.5603L56.4403 19.8696L63.2723 3.57365L62.5345 3.26434Z" fill="#1D40B4" mask="url(#path-1-outside-1_2363_10755)"/>
</svg>
