<?xml version="1.0" encoding="UTF-8"?>
<svg id="Layer_1" xmlns="http://www.w3.org/2000/svg" xmlns:xlink="http://www.w3.org/1999/xlink" version="1.1" viewBox="0 0 612 792">
  <!-- Generator: Adobe Illustrator 30.2.1, SVG Export Plug-In . SVG Version: 2.1.1 Build 1)  -->
  <defs>
    <style>
      .st0 {
        fill: #1b150e;
      }

      .st1 {
        fill: #030202;
      }

      .st2 {
        fill: #120f0d;
      }

      .st3 {
        fill: #efcabc;
      }

      .st4 {
        fill: #501310;
      }

      .st5 {
        fill: #56604b;
      }

      .st6 {
        fill: #030303;
      }

      .st7 {
        fill: #4e1614;
      }

      .st8 {
        fill: #55604b;
      }

      .st9 {
        fill: #f4d3c9;
      }

      .st10 {
        fill: url(#radial-gradient);
      }

      .st11 {
        fill: url(#linear-gradient);
      }

      .st12 {
        fill: #7f4e31;
      }

      .st13 {
        fill: #dfa593;
      }

      .st14 {
        fill: #e2af93;
      }

      .st15 {
        fill: #232315;
      }

      .st16 {
        fill: #412916;
      }

      .st17 {
        fill: #b2afad;
      }

      .st18 {
        fill: #7e4e30;
      }

      .st19 {
        fill: #fff;
      }

      .st20 {
        fill: #393b22;
      }

      .st21 {
        fill: #cda873;
      }

      .st22 {
        fill: #c79168;
      }

      .st23 {
        fill: #b45932;
      }

      .st24 {
        fill: #e6dbd4;
      }

      .st25 {
        fill: #d3796d;
      }

      .st26 {
        fill: #6f5730;
      }

      .st27 {
        fill: #111311;
      }

      .st28 {
        fill: #412915;
      }

      .st29 {
        fill: #06080a;
      }

      .st30 {
        fill: #c69168;
      }

      .st31 {
        fill: #e6dacc;
      }

      .st32 {
        fill: #9e744c;
      }

      .st33 {
        display: none;
      }

      .st34 {
        fill: #0f110f;
      }

      .st35 {
        fill: #505f53;
      }

      .st36 {
        fill: #e6d0bb;
      }

      .st37 {
        fill: #c7c3c0;
      }

      .st38 {
        fill: #fef2ee;
      }
    </style>
    <radialGradient id="radial-gradient" cx="355" cy="365.7" fx="367.4" fy="365.7" r="82.1" gradientUnits="userSpaceOnUse">
      <stop offset=".2" stop-color="#c77b6b"/>
      <stop offset=".5" stop-color="#dfa593"/>
      <stop offset=".8" stop-color="#eabfb1"/>
      <stop offset=".9" stop-color="#efcabd"/>
    </radialGradient>
    <linearGradient id="linear-gradient" x1="166.2" y1="380.3" x2="122.7" y2="399" gradientUnits="userSpaceOnUse">
      <stop offset=".5" stop-color="#efcabd"/>
      <stop offset=".8" stop-color="#e6b6a6"/>
      <stop offset="1" stop-color="#dfa593"/>
    </linearGradient>
  </defs>
  <image class="st33" width="1875" height="1255" transform="translate(-515.9) scale(.6)" xlink:href="../../../../BCIT/Term 2/02 Illustration/Assignment1/JinByun_Assignment1.jpg"/>
  <rect id="background" class="st31" width="612" height="792"/>
  <g id="middle_jacket">
    <polygon id="sweater" class="st34" points="335.3 642.8 346.4 660.4 324.3 792 298.2 792 279.3 640.1 335.3 642.8"/>
    <path id="button" class="st35" d="M309.5,745c0-7.7,11.6-7.9,11.6-.6,0,8.9-11.3,8.9-11.6.6Z"/>
  </g>
  <g id="left_jacket">
    <path id="jacket_black2" class="st2" d="M215.1,728s31.8-2.1,45.1-13.5l22.3,77.5h-40.8s-.4-15.4-12.3-38c-8.2-9.5-14.3-20.2-14.3-26.1Z"/>
    <path id="jacket_brown2" class="st0" d="M266.1,629.2s-12.2,23.4-2.6,43.9c8.6,32.1-19.1,53.5-.6,76.9,6.6,16.7,4.8,42.1,19.6,42.1h16.5s16.3-79.5-16.5-150.4l-16.5-12.5Z"/>
    <path id="jacket_black1" class="st2" d="M162,741.3l10.6,50.7h-56.5s15.8-7.2,24-23.3c9.5-23.6,22-27.4,22-27.4Z"/>
    <path id="jacket_brown1" class="st0" d="M163.6,728s21.2,6.5,40.6,0c0,0,6.9,18.9,16.5,33.6,13.2,18.9,11.9,30.5,11.9,30.5h-80.8s14.1-11.1,15.4-18.7c0-10.8-10.8-20.6-3.7-45.3Z"/>
    <path id="jacket_collar1" class="st34" d="M224.7,541.5s-26.9-6.8-39.2,22.8c-12.3,29.7-41.5,70.4-56.6,81.5-37.9,25-48.4,40.8-5,68.7,30.6,14.5,51.1,22.7,104,14.5,43.8-6.4,38.8-30.9,38.2-48.4-.8-10,0-51.6,0-51.6l-41.4-87.6Z"/>
    <path id="zipper1" class="st35" d="M200.1,703.5c-1.2-32.7,23.2-25.1,14.3,5-.8,17,7.7,30.6,12.7,39.6s16.1,32.8,15.8,43.8h-11.8s-.9-13.2-15.2-37.9c-11.8-13.9-14.6-31-15.8-50.5Z"/>
  </g>
  <g id="shirts">
    <g id="left_shirts">
      <path id="left_shirts1" data-name="left_shirts" class="st24" d="M266.1,544s-32.2,58.6,0,84.4c0,0-24.2,13.7-31.6,43.3-1.9,4.8-13.9,5.6-14.2-4.9-.5-6.1-9.8-30.7-13.8-36.2-14.7-34.1-7.3-32.4,20.2-93.8l39.4,7.2Z"/>
      <path id="left_shirts_shadow" class="st20" d="M248.2,592.3c-15.5-4.7-52.5-12.1-32.7,31.2,5.6,16.8,7.4,8.4,12.6,2.3,4.8,2.1,4.6,9.9,6.6-1.7,2-13.2,14-13.8,18.7-10.8-6.3-14.9-5.2-21-5.2-21Z"/>
    </g>
    <path id="right_shirts" class="st24" d="M321,558.1c-36.1,32.3-19.1,40.8,25.4,102.3,0,0,2.9-2-4.9-17.1,9.9-2.6,30.2-48.8,39-68.5,3.6-10.7,15.7-39,27-56.8,3.6-7.4,18.7-32.8,27.9-42.2l-1.6-75.5-18.1,16.7-94.7,141.2Z"/>
    <g id="middle_shirts">
      <path id="middle_shirts1" data-name="middle_shirts" class="st24" d="M263.5,544.4c-19.1,49.4-29.7,69,30.7,104,0,0,8.6-5.7,13.9,6.1,0,0,20.5-2.6,26.1-10.6-11.8-29.4-54.2-45.7-13.1-85.8,0,0-10.9-28.4-27.2-27.9s-30.3,14.2-30.3,14.2Z"/>
      <path id="middle_shirts_shadow" class="st26" d="M299,645.8c3.7-1.3,11.8-12.1,18.4-24.5-24-32.4-12.3-47.8,3.7-63.2,0,0-6.9-23.9-26.8-27.8l-23.1,11.8s39.4,9.2-5.1,53.3c0,0,18.1,16.8,32.9,50.4Z"/>
    </g>
  </g>
  <g id="right_jacket">
    <g id="jacket_black">
      <path id="jacket_black3" data-name="jacket_black" class="st27" d="M441.2,629.6s6.6,16.5,17.8,26l-6.7,10.4s-22.8,2.3-20.3-28.9c-.2-10.6,9.1-7.5,9.1-7.5Z"/>
      <path id="jacket_black4" data-name="jacket_black" class="st27" d="M497,673.6s21.4,13.4,69.9,17.5c0,0-22.5,24.2-33.4,25.1s-40.9-19.2-36.5-42.6Z"/>
      <path id="jacket_black5" class="st2" d="M355.6,676.8s-13.2,15.3-3.4,51.5c7.3,34.9-4.1,52.6-13.1,63.7h-14.8s5.3-44.3,4.3-66.4-10.4-58.5,27-48.8Z"/>
      <path id="uuid-465f8648-9799-4ad1-abf1-126c5b4e3a87" data-name="jacket_black3" class="st2" d="M435.5,637s5.4,9.2,3.2,23.5c0,0,7.3-1,13.7,1.9,0,0-30.6,46.1-42.8,69.1-4.5,15.6-26,51.9-24.4,60.6h-37.7s20-21.2,11.4-60.6c-13.9-55.9,8.9-68.4,32.7-75.1s21.9-4.4,44.1-19.3Z"/>
      <path id="uuid-da7582b0-b137-496f-bf3d-d60b57645ac2" data-name="jacket_black4" class="st2" d="M440.8,614.4s3.7,9.1-12.3,19.6-25.6,12.9-36.3,15.7-21.6,6.4-29.2,15.3,29-54,77.8-50.6Z"/>
      <path id="jacket_black10" class="st29" d="M346.4,660.4c-2.2-9.9-14.3-11.7-2.1-25,13.1-15.8,1.4-18.2,18.4-37,14.9-13.4,18.8-30.2,25.2-40.3,5.5-14.1,11.7-30.2,20.1-40.7,8.7-15.5,15.3-36.3,27.8-45.9s18.6,15,7.5,31.3c-5.3,9.3-16,35.2-16,35.2l-16.4,53.3s8.8,24.1-64.7,69.1Z"/>
      <path id="jacket_black9" class="st2" d="M426,577.1s-9.6,16.4-15.1,21.2c0,0-1.2-30.9,15.1-51.8,0,0-2.2,24.7,0,30.6Z"/>
    </g>
    <path id="jacket_brown5" class="st0" d="M346.4,660.4c8.9-10.6,0-21.6,21.2-29.1,11.1.6,15.3.6,22-6.4,2.5-2.8,2.1-6.2,11-11.7,0,0,3.4-17,20.2-32.9,10.7-10,16.5,6.6,11.4,8.5-4.8,8.6,2.6,18.6,8.6,22.1,3.8,8.6-19.2,11.8-26.6,11.8s-8.2,5.3-12.4,8.7c-3.4,8.1-9.5,9.6-16.9,13.1-8,6.6-17.7,14.9-22,20.6-7,9.3-8.7,11.7-8.7,11.7,0,0-27.3-9.3-26.9,22.1,1,29.9,4.9,68.4-3.1,93.1h-4.5s4.2-8.3,6.3-31c1-17.4-1.7-56.9-2.1-63.1s1-17.3,8-22.8,14.5-14.7,14.5-14.7Z"/>
    <path id="jacket_black8" class="st2" d="M405,792h72.3s-10-22.3,3.7-54.5c12.7-20.1,9.6-23.8,12.4-35.2l6.2-24.8-26.4-11.6s-20.9,94.5-68.2,126.1Z"/>
    <path id="jacket_brown4" class="st0" d="M456.2,653.5c-9,9-62.3,98.5-73.9,138.5h33.5s37.3-52.9,62.1-112.6c7.4-27.5-21.6-25.9-21.6-25.9Z"/>
    <path id="jacket_brown3" class="st0" d="M493.9,677.9s0,34.1-9.7,51.3c-11.3,15.7-13.5,42.3-10.3,62.7h138.2v-88.3s-65.7,25.7-106.7,26c0,0,45.5-13.3,23.6-20.8-19.7-4.7-18.5-8.8-21-12.8s-3.1-15.7-14.1-18.2Z"/>
    <path id="jacket_black7" class="st2" d="M502.3,709.4c-5.2,12.5,1.1,11.5,4.3,2,8.2-17.7,1.4-17-4.3-2Z"/>
    <path id="jacket_black6" class="st2" d="M533.4,716.2c-41.3,15.3-43.8,18,0,11.5,19.6-4.1,34.8-7.2,49.5-8.9s17.2,8.9-13.5,16.3c-21.3,2.5-66.7,16.8-67.9,32.3,10.6,9.8,32-8.1,42.6-11.9,7.8-4.9,26.2-16.4,45-20.5,17.2-5.9,22.9-10.2,22.9-10.2v-38.5s-72.8-1.8-78.6,29.9Z"/>
    <path id="zipper2" class="st35" d="M438.3,625.1s9,12.3-29.9,27-52.4,22.9-53.4,48c-.2,18.6,2.9,24.7,3.8,31.3s11.1,26.9-9.9,60.6h-11.4s6.7-4.4,14-24.7c2.2-10.2,5.4-14.6-1-44.5-4-17.1-4.8-31.5,3.8-46,8.7-11.7,7.7-22.1,37.8-27,18.3-5.8,46.1-24.6,46.1-24.6Z"/>
    <path id="jacket_collar2" class="st34" d="M570.9,265s6.2,1.1,8.4,11.7,13.5,1.8,20.8-5.9,12.1-1.2,2.2,10.8l9.7-2v411.4s-90.5,17.6-158-38.8c-24.2-21.5-45.6-93.9-15.1-172.9,15.2-58.1,25.2-103.7,62-122.4s50.3-63.9,50.3-63.9c0,0-1-15.3,19.7-27.8Z"/>
  </g>
  <g id="face">
    <path id="face-bright" class="st3" d="M84,266c-.2,20.9,0,32.6,16.3,46.7,8.5,10.5,10.2,16,10.8,30.1,1.4,21,7.7,38.9,11.3,45.5,8.3,20.2,37,65.1,45.5,76.7,7.9,11.1,13.3,24.3,28.7,37.5,8.9,6.8,12.4,16,21.3,24.8,7.7,12.1,24.7,22.3,56.6,13.5,22.4-4.4,46.5-16.7,67.9-31.7,19.9-15.2,41.1-35.9,53.8-54.4,11.5-17.7,14.2-21.3,19.6-37.9,0,0-43.2-39.6-41.2-154.4l-93.7-137.4s-77-28.5-145.3-4.9c-64.8,33.4-81.5,101.6-51.5,145.8Z"/>
    <g id="cheek_gradient">
      <path id="right_cheek" class="st10" d="M370.2,251.7s-54,26.1-82.6,87.5c-7.7,20-11.8,56.8,18.3,92.5,25.1,23,69.2-5.6,53.7,3.1l57.1-62.1-46.6-121Z"/>
      <path id="left_cheek" class="st11" d="M110.7,340.6c1.9,32.6,11.7,53.8,43.7,105.3,9.5,13.2-1.9-41.1-9-58.3s-26.9-49.4-34.8-47Z"/>
    </g>
    <path id="face-dark" class="st14" d="M223.9,202.2c5.4,12.3,15.2,8.8,20.6,14.2s-18.7,17.5-74.6,24.5c-25.3,2.8-43.4,20.9-8.2,40.1,17.1,11.9,16,20.7,15,36.2,0,0-1.4,46.9-1.8,62.9,7.3,1.9,14.8-2.4,18.8-9.2s21.1-20.4,40.9-4.8c6.2,7.4,6.5,15.9,7.4,29,4.8-2,11.1-4,14.4-13.5,4.1-10.7-4.8-48.2-7.2-58.1-15.5-18.6-32.5-15.2-27.5-38.2,0,0-22.5-3-21.3-22.3s78.7-30.4,105.7-10.6,19.5,38.5-13.4,67c-18.6,16.1-3.1,29.8,10.6,21.7s62.7-39.1,73.2-62.7c0,0,4.3-40.3-40.3-81.9-11.8-36.6-59-87.5-90.6-75.1s-77.6,34.1-21.6,80.8Z"/>
    <path id="mouth_shadow" class="st14" d="M201.2,473.1s-7.4,31.5,14,21.1c17-9.3,24.7-9.6,42.5-8,7.8,1.2,19.2-1.2,27.8-5.5,18.3-9.2,23.3-7.7,43.7-2.5,13.6-3.2,5-25.7-7.8-29.9-26.9-8.9-43.1-18.9-98.6-6.2,0,0-4.1.4-12.4,11.2-5.9,8.2-6.2,10.7-9.2,19.8Z"/>
    <path id="chin_dark" class="st32" d="M271.1,542.1c7.5-1.7,12.3-2.8,11.3-6.1-1.5-3.2-6.8-1-9.3.2-9.8,4.3-14.7,5.5-28.7,7.6-1,.1,9.7,2.1,26.6-1.6Z"/>
    <g id="bandaid">
      <path id="bandaid1" data-name="bandaid" class="st32" d="M390.3,378.4c-12.5,22.2-35.1,40.4-39.9,44.4-19.4,17.8-32.3,21.6-32.3,33.4-.1,17.1,11.4,30,27.7,19,18.6-9.1,62.6-61.5,64.9-69.9s-12.1-25.4-20.5-27Z"/>
      <path id="bandaid2" class="st21" d="M363.8,421.7l10.3,18.2s21.3-17.1,26.6-28.1l-10.6-20.1s-12.6,17.3-26.2,30Z"/>
    </g>
  </g>
  <g id="lips">
    <path id="lower_lips" class="st25" d="M191.7,462.4c6.9,7.8,12.2,19,33.4,16.3,13.9-2.3,40.9-22.9,50.8-33.1,0,0-20.6,4.9-31.7,2.6-7.9,1.3-13.4,4.9-16.8,9-11.3,0-25-.9-35.7,5.2Z"/>
    <path id="upper_lips" class="st23" d="M181.8,461.6c5.7-10.4,11.9-22.4,22.9-15.4,2.4-5.7,5.6-7.4,18-4.1,18.9,4.2,47.5-2.2,52.6-1.6,11,1.9-.4,6-5.9,6.6s-22,1.4-27.8.5-10.8-2.6-15.4,3.4c-3.4,2.8-3.5,5.6-12.1,2.4-4.6,3.5-6.5,5.1-9.7,2.2-3.5.9-2.9.4-4.6,2.7s-5.6,5.5-8.1,4.1c-3.5,2.1-6.4,2.2-9.9-.9Z"/>
    <path id="lips_shadow" class="st4" d="M193.7,462.7s16.6-2,21.2-4.6c5.3-1.3,7.6-.6,11.9,0,3.8-2.8,6.5-6.7,16.8-9.8-4.1-1.3-8.4-2.1-12.2-1.6-6.1,1.7-7.3,8.7-11.9,7.9s-4.9-2-9.6,0c-3.3,2.5-4.8,0-7.5.4-2.2.8-1.9,2.1-8.7,7.7Z"/>
    <path id="lips_shadow2" class="st4" d="M237.1,447.5c0-1.7,22,0,30.3-3.2,4.3-1.7,7.4.9,9.4.9-1.4,1.3-8.2,2.6-9.2,2.8-10,1.4-30.6,1.2-30.6-.5Z"/>
    <path id="lips_shadow3" class="st4" d="M230,486.2c6.6,0,16.5-3.5,23.7-3.4,6.1-.5,5.8-7.2,2.7-8.9-2-1.6-8.3-.5-10.6,0-7.6,1.3-21,10.9-35.4,4.1,0,0,3.5,6.3,19.6,8.2Z"/>
  </g>
  <g id="nose">
    <path id="nose_shadow" class="st14" d="M163.1,314.6s-1.2,34.5-4.9,56.3c-2.7,18,6.9,34,20.8,34s14-14.8,16.6-24.8c.7-23.7-13.5-9.9-20.8-1.6-3.3,5-11.9,4.6-11.3-4.2,1.5-12.1,2.4-45.2,2.9-48.1-1-6.8-3.4-11.7-3.4-11.7Z"/>
    <path id="nose_dark_shadow" class="st13" d="M186.5,372.8c5.2-16.9,45.6-20.7,51.9-.5,1.8,5.6-1.9,12-7.7,7.1-5.2-6.5-17.3-13.3-32.1-7.1-5.2,2.7-12.9,6.4-12.1.6Z"/>
    <path id="nose_dark_shadow2" class="st13" d="M163.9,396.9c4.5,6.6,19.1,15.2,26.7-.9,2.9-6.1,8.7-6.1,13.8-6,10.4,2.9,22.1,6,24.4.1,0-12.6-20.6-12.4-32.7-11.9-8,.3-13.4,6.4-17.1,10.2-5.4,7.7-16.2,3.1-15,8.5Z"/>
    <path id="nose_dark_shadow3" class="st32" d="M213.8,397.7c-2.8-4.5-9.5,4.7-24.2,6.2,8.2,5.1,27.4,0,24.2-6.2Z"/>
    <path id="nose_dark_shadow4" class="st32" d="M234.5,365.7s11.7,25.5-9,32.8c28-.7,31.1-19.1,9-32.8Z"/>
    <path id="nose_bright" class="st9" d="M170.2,369.5c-9.4,0-8.5,12.7.1,12.7,7.9,0,8.7-12.7-.1-12.7Z"/>
    <path id="nostrils" class="st7" d="M197.7,385.1s18.2-8,24.1,5.4c-7.5,8-17.7-6.4-24.1-5.4Z"/>
  </g>
  <g id="eyes">
    <g id="right_eye">
      <path id="right_eyehole_shadow" class="st32" d="M200.4,261.8c-2.6,7.5,3,21.5,21.2,23.3,33.9-53.1,86.3-12.6,92.5-15.8,9.3-5.2-42.5-26.9-77.1-11.1-11.8,5.7-17.3,1.3-6.3-7.3s12.1-6.8,18.6-12.5c-6.8.5-43.6,8.4-48.9,23.3Z"/>
      <path id="right_double_eyelids" class="st18" d="M221.6,285.2c11-35.3,59.3-26.7,76.2-23.5-.6-2.9-67.2-20-76.2,23.5Z"/>
      <path id="right_eye_front" class="st12" d="M229,288.9s1.1-6.4,7.2-8.8c0,0,1,.8,3.7,3.6,0,0-5.8,6.8-10.9,5.2Z"/>
      <path id="right_eye1" data-name="right_eye" class="st38" d="M236.2,280.1c5.9-19.3,35.4-19.5,52-12.6-5.5,13.3-37.9,30.5-52,12.6Z"/>
      <path id="right_eye_inside" class="st8" d="M252.2,265.8c10.9-3.9,22.4-2.7,30.7.1,2.5,9.9-8.7,18.1-18.1,17.4-9.8-1-14.1-10.9-12.7-17.5Z"/>
      <path id="right_eye_pupil" class="st1" d="M260.1,263.9s3.8-1.5,13.5-.4c-1.1,13.4-12.6,14.4-13.5.4Z"/>
      <path id="right_front_eyelahes" class="st28" d="M236.2,280.1s.4-5.3,6.2-10.6l.7.6s-4.8,3.4-6.9,10.1Z"/>
      <path id="right_eyelashes" class="st28" d="M243.1,270.1s-2.5-1.6-2.5-4.8c0,0,.9,3,2.5,3.2,0,0-.8-.6-.7-2.5,0,0,0,1.9,2,2.1s2.2-1.1,2.2-1.1c0,0-1.7,0-1.8-2.4,0,0,.5,1.7,2.5,1.7,0,0-1.2-.2-1.1-2.3,0,0,.9,1.8,3.3,1.3,0,0-1.2-.5-1.3-2.2,0,0,.5,1.5,2.1,1.3,0,0-.5-.7,0-2,0,0,0,1.6,1.7,1.9,0,0,.6.5,1.9,0,0,0-1.2-.2-1.3-2.1,0,0,.8,1.4,2.5,1.1,0,0-1.1,0-.5-2,0,0,0,1.5,1.5,1.5,0,0,.4.5,1.4-.1,0,0-1.5,0-1.1-1.9,0,0,.1,1.6,1.6,1.3,0,0,.4-.1.8-1.8,0,0-.2,2.2.7,2.3,0,0,1,.4,1.7-.2s1.1-2.5,1.1-2.5c0,0-.5,1.8.3,2.4s1,0,1.2-.2.6-2.2.6-2.2c0,0-.2,1.8.6,2.1s.1.8.7.5,1.1-1.5,1.3-2.5c0,0-.5,1.5.4,2,0,0,.5.5,1.1.2s1.3-1.4,1.3-2.1c0,0-.5,1.5.5,2.1,0,0,.5.6,1.3.6s1.8-1.3,1.9-2.2c0,0-.6,1.6.3,2.1,0,0,1.2,0,2.1-1.9,0,0-.5,1.8.5,2.2s1.8-.2,2.6-1.2c0,0-.6.8-.3,1.8s2.6.6,3.1-1.3c0,0-1,1.8.7,2.8,1.9,0,2.4-1.9,2.4-2.6,0,0-.8,2.3,0,3.2s2.9-.7,3.2-1.2c0,0-.7.8-.6,2.2s2.8,1.8,2.8,1.8c0,0-27.2-11.4-47.3,1.8Z"/>
      <path id="right_eye_glow" class="st37" d="M251.8,269.2s9,1.2,7.3-3c-1.6-1.9-7.5.7-7.3,3Z"/>
      <path id="right_eye_glow2" class="st17" d="M272,269.3c0,1.8,7.1,2.5,7.1-.2,0-3.3-7.1-3.2-7.1.2Z"/>
      <path id="right_eye_under" class="st13" d="M226.1,300.2c.8,3,8.4.6,22.8,2.7,32.1,3.7,54.3-13.6,51.3-19.8-1.1-2.5-7.3.9-11.4,3.7-9.7,5.9-13.6,7.7-27.6,10-6.9.6-11.8.5-17.6-.1-8.3-1.4-18.5,0-17.5,3.6Z"/>
      <path id="right_eyebrow" class="st22" d="M195.3,252.5s2.4-7.6,14.2-16.1c0,0-3.8,1.9-4.3,8.1,0,0,5.2-8.1,16.1-11.4,0,0-3.6,1.5-5.2,5,0,0,5.6-6.2,12.8-8.4,0,0-3.9,1.6-4.9,3.8,0,0,6.2-7.5,14.8-8.9,0,0-4.2,1.1-6.1,3.6,0,0,9.3-8.2,19.4-9,0,0,8-3.4,14.1-2.2,0,0-7.5,3.3-16.9,10.2-6.2,4-10.3,4.9-15.1,9.4-4.7,3.3-7.5,5.3-12.5,11.3-5.2,7.4-23.4,9-26.4,4.6Z"/>
    </g>
    <g id="left_eye">
      <path id="left_eye_hole" class="st32" d="M110.7,316.1c-5.4,0-7.8-8.4.1-15.1,5.1-5.5,18-14.3,30.4-11.4,11.7,4.6-.8,2-8.2,6.2s-12.9,5.5-14.6,11-4.4,9.4-7.7,9.4Z"/>
      <path id="left_double_eyelids" class="st12" d="M158.6,307.1c-6.2-27.3-40.7-16.8-48.8,1.1,8.7-13.3,42.5-27.3,48.8-1.1Z"/>
      <path id="left_eye1" data-name="left_eye" class="st38" d="M158.6,307.1c-5.9-24.4-38.9-10.2-41.2,2.5,4.3,18.6,37.2,4.8,41.2-2.5Z"/>
      <path id="left_eye_inside" class="st5" d="M130.9,296.7c11.3-7.4,24.1-4.3,27.7,10.4-2.9,6.5-27.8,15.5-27.7-10.4Z"/>
      <path id="left_eye_pupil" class="st6" d="M139.8,293.2c3.4-.8,9.4-.7,13.4,3.8-.4,10.8-14.3,14.9-13.4-3.8Z"/>
      <path id="left_eyelashes" class="st16" d="M147.3,293.4s-4.9-2.5-5.3-4.8c0,0-.5,2.4,1.8,3.6,0,0-4-1.1-4.1-3.5,0,0-.4,2.4,1.8,3.6,0,0-3,0-4.8-2.4,0,0,1,2,2.4,2.5,0,0-3.1.6-4.4-1.6,0,0,.7,1.8,2,2.7,0,0-3.5-.1-4.4-2.1,0,0,.5,1.9,2.3,2.5,0,0-4.2.7-5.4-1.5,0,0,.5,1.8,2.5,2.5,0,0-3.4.5-5-1.4,0,0,1.2,1.7,2.9,2.2,0,0-3.5.9-5.1-.8,0,0,.6,1.7,2.8,1.9,0,0-3.2,1.1-5.9-.6,0,0,2.3,1.9,5,2.3,0,0-4.9,2.2-6.9-.4,0,0,.5,1.6,3.1,2.2,0,0-3.3,2.2-5.4.3,0,0,1.2,1.9,3.5,2,0,0-3.3,2.5-5.3,2,0,0,2,1.1,4,0,0,0,10.6-12.1,27.6-11.3Z"/>
      <path id="left_eye_glow" class="st37" d="M132.5,301.4c.3.7,4.2,1.5,7.4-1.5,1.9-2.4,0-3.6-2.4-3.3s-6.2,2.4-5,4.8Z"/>
      <g id="left_eyebrow">
        <path id="left_eyebrow_shadow" class="st32" d="M127.2,276.6c-11.6-1.7-25.4,7-20.4,8.7s18.3,2.6,22.5,2c7.2-1.1,13-8.4-2.2-10.7Z"/>
        <path id="left_eyebrow1" data-name="left_eyebrow" class="st30" d="M131.1,277.4c-11.4-8.1-20.2-10.8-20.2-10.8l4.2,3.2s-5.2-2.2-10.7-1.4c0,0,2.6,0,4.8,1.4,0,0-7.7.8-11.9,0,0,0,1.8.1,3.2,2.2,0,0-7.2,2-3.1,2.5,0,0-5.5-1.2-10.1,4.3,0,0,10.1-2.2,17.1,5.5,4.8,1.9,8.5,3.5,14.3,1,8.5-1.9,12.4-7.9,12.4-7.9Z"/>
      </g>
      <path id="left_eye_under" class="st13" d="M153.9,324.7c7-8.9-.4-9.4-6.6-4.4-4.9,4.8-22.7,14.9-16.1,18.5,3.7,2.6,19.8-11.5,22.7-14.1Z"/>
    </g>
  </g>
  <g id="ear">
    <path id="ear_outside" class="st12" d="M470.5,276.7l-28.1-43.6s-2.3-10.2,5.7-12.3l22.3,22.1s2,33.1,0,33.8Z"/>
    <path id="ear_inside" class="st32" d="M441.2,215s-.5,4.9-4.2,6.7l5.5,11.4s-1.3-10.8,5.7-12.3l-7-5.7Z"/>
  </g>
  <g id="neck">
    <path id="neck1" data-name="neck" class="st3" d="M296.7,534.4s17.7,10.4,24.4,23.8c0,0,69.3-61.8,75.2-103.3,0,0-43.2,55-99.5,79.5Z"/>
    <path id="neck_shadow" class="st32" d="M300.5,532.8s21.5,15.7,36.5,9.9c0,0,53.8-49.4,59.2-87.9,0,0-47.9,54.1-95.7,78Z"/>
  </g>
  <g id="hair">
    <g id="hair_inside">
      <path id="hair_inside1" class="st15" d="M390.3,380.6s3.2,9.2,7.7,13.1c0,0,.3-1.7.2-5.1,0,0,2.6,3.2,3.5,5.8,0,0-1.1-9.1-3.7-14.6,0,0,11.5,23.7,14.1,29.3,0,0,2,3.8,4.4,6.6,0,0-5,17.2-16.5,33.1,0,0,3.9-18.4,3.7-28,0,0-7.4-11.3-10.9-18.5s-3.9-18.9-2.5-21.8Z"/>
      <path id="hair_inside2" class="st15" d="M515.7,285.8s-20.3,40.1-7.8,66.9c0,0,33.2-20.7,36.3-30.4,4.3-13.6-8.3-37.9-8.3-37.9,0,0-10.4-6.2-20.1,1.4Z"/>
    </g>
    <path id="blonde_hair" class="st21" d="M185.4,0s-23,5.2-29.3,16.9c-21.3,4.8-39.2,26.6-46.5,34.9-11.9,10.7-19.2,13.4-24.7,18.9-12.7,12-21.3,28.6-28.1,41.7-9.1,19.6-16.7,42.8-17.9,63.3,0,0,1.2-11.5,5-15.3,1.9,9.5-3.3,21.2-5,25.3,0,0,3.6-3.8,5.7-9.1,0,0-6.9,25.3-7.6,29.8,0,0,4.3-6.2,8.1-21.2,0,0-3.6,18.1-3.1,26,0,0,1.7-10,4.1-13.6,0,0-1.2,3.6,1,4.5-1,8.1,2.3,50.2,8.1,62.3,5.9,19.6,11.5,50.7,17,62.5s16,56.3,13.2,85.5c0,0-3.1,46.4,15.8,61.5,5.5,4.3,8.5,19.7,8.5,19.7,0,0,4,.6,10.7-2.2,13.6-5.9,21.1,14.8,21.1,14.8l5.7,9.5s14.1-.3,19.4-5.3c6.3-2,13.7,15.4,14.8,19.9,5.6,9.9,35.9,16.3,46,7,0,0-25.1-31.4-32.2-37.1-7.4-5.6-38-50.4-41.5-57.1-11.6-16-26.1-44.7-29.9-52.6-7.3-16.1-10.6-27.9-12.6-49.9.4-13.5-6.2-25.8-12.7-30.6-14.6-9.3-13.9-25.5-13.6-33.5s-2.7-25.9-2.7-25.9c0,0,2.7,5,3.6,10.3s5.6-12.3,5-20.2l4,.3,2-9.3,3,8,3-9,6.6,11.6,3-5.3,4,2.7,2.7-10.9s9.3,23.2,10.3-3.3c.2-9.3-1.7-17.9,2.1-31.8,0,0,3.6,20.6,13.2,27.5,0,0-5-9-7-19.9,0,0,5,18.2,10.6,19.9,2.3-3.5,0-10.3,0-10.3,0,0,2.7,4.3,9.6,2.3,3-6.3-9-16.9-9-20.9,0,0,14.9,18.6,7.6-3.6s-4-36.5-4-36.5c0,0,9.3,2.3,13.6,40.4,0,0,3.3,15.6,13.9,20.6,0,0-6-7-5.3-21.2,0,0,2.3,22.9,14.6,25.2,0,0,4.6,1.3,6.3-7.3,0,0,9,9.3,11.3-5.3,0,0,5,7.3,9.6-.7,0,0,13.6,9,29.5,9,0,0-19.9-3-20.6-11.9,0,0,9,4.6,8.6-2.3,0-5.3-16.6-15.3-16.6-15.3,0,0,13.6,11.3,26.9,10.6,0,0,15.3,1,24.5-3.3,0,0-11.9-6.3-13.6-12.6,0,0,8.3,7.6,8.6-2,0,0,10.9,12.6,30.8,13.6,0,0-12.3-11.3-14.6-19.9,0,0,14.3,12.6,22.5,13.3,0,0-34.1-25.5-34.5-36.8,0,0,24.5,5.3,40.1,32.5,7.1,11.9,9,23.2,16.6,30.5,0,0,9.9,31.8,10.9,50.1,0,0,3-20.6,1-42.8,0,0,11.6,28.8,32.8,46.1,0,0-2,28.8,1.7,41.1,0,0-17.6,62.3-15.3,80.6,0,0,1.7-10.6,4.6-13.6,0,0,.3,32.8-7.3,48.1,0,0,10.6-17.2,11.6-42.1.7-12.3,9.6-29.2,9.6-29.2,0,0-.3,34.5-5,46.7,0,0,7.3-25.5,7.6-33.8,0,0,6.6,36.5,3.6,44.4,0,0,6.6-6.6-.3-55.7,0,0,9.3,37.4,15.9,42.7,0,0-5.7-13.2-5.3-21.5,0,0,2.6,17,25.1,46,0,0-7.8,21.7-19.4,36.9,0,0,23.7-6.2,34.8-46.9,0,0,0,44.8-5.9,68.8,0,0,4.5,5.6,9.7.7l5.6,7.3,6.9,5.6s-2.1-17.4,4.2-20.8c0,0-1.7-10.4,0-16.3l2.4,4.2,3.5-6.3,3.5,7.3s1.4-36.1,7.3-55.9l4.5-2.4s.7-10.1,4.2-14.2c0,0,4.2,3.1,5.2,15.3,0,0,1-17.4,2.1-24.7,0,0,2.1,8.3,1,13.5,0,0,4.2-6.3,7.3-34.4,0,0,3.5,4.9,1,24.7l4.5-12.2.7,8.7s4.5-15.6,3.5-21.5c0,0,3.8,3.8,4.2,8.3,0,0,2.8-18.8.3-44.8l8.3-31.3s15.6,24.7,20.1-1.4c0,0,7.6,13.5-10.4,36.5l-1.7,5.9,11.5-9s-4.9,11.5-17.7,24c0,0,25-15.6,26.4-31.6,0,0,1.7,4.5.3,12.2,0,0,10.1-17,9.4-27.1,0,0,1.7.7,2.1,3.1s1.4-3.5.3-9l2.1-4.9,2.8,3.1-1.4-12.2,3.8-3.5,3.5,4.2s5.6-17.7,13.2-.3c.7,6.9,14.6,15.6,5.2-10.4-16.3-36.8-44.8-83.4-79.5-107.7C494.5,112.8,428.5,30.1,370.1,0c-27.9-.5-184.7,0-184.7,0Z"/>
    <g id="bright_hair">
      <path id="bright_hair1" data-name="bright_hair" class="st36" d="M95.1,349.5s-16.2,49.7,0,64.5c11.5-3.3,4.8-24.4,11.5-32.2s2.4-19.8,2.4-29.4c0,0-1,15.8-6.2,22s-8.1-11.5-7.6-24.8Z"/>
      <path id="bright_hair2" class="st36" d="M75.7,103.1s-31.7,67.3-26.5,89.3c8.6-35.3,15.1-58.9,26.5-89.3Z"/>
      <path id="bright_hair3" class="st36" d="M79.3,116s-22.2,45.4-20.1,76.4c8-31.2,12.1-51.4,20.1-76.4Z"/>
      <path id="bright_hair4" class="st36" d="M85.6,125.7s-26.6,73.5-13.3,92.3c0,0-2.2-15.3-.1-21.5,0,0,.4,20.2,4.9,24,0,0-4.6-9.8-1.4-24.3,0,0-.6,26.4,5.6,30.3,0,0-8.9-40.7,6.8-91.1l-8.9,20.7,6.3-30.4Z"/>
      <path id="bright_hair5" class="st36" d="M94.9,133.8s-16,47-11.3,64.5c0,0,2.3-26.4,11.3-64.5Z"/>
      <path id="bright_hair6" class="st36" d="M93.9,213.9s-8.1-34-6.1-44.7,1.4-7.9,1.4-7.9c0,0,5.2,48.2,4.7,52.6Z"/>
      <path id="bright_hair7" class="st36" d="M91,152.1s4.5,55.6,7.4,61.8c0,0-1.8-13.5,0-18.8,0,0,.3,20.1,3.9,22.4,0,0-3.6-14.9,0-20.3,0,0,1,9.4,3.1,11.5,0,0-.8-8.6,2.3-13,0,0,.3,14.3,3.6,18.2,0,0,5.7,6.3,9.4,14.3,0,0-9.4-14.3-8.1-33.1v-9.1s-.3,17.2,3.4,19.8c0,0-3.4-19.8,0-51.7l-1.3-6.4s-2.2,11.6-2.9,23c0,0-2.3-21.1-1.6-25.5,0,0-2.6,6.8-2.1,25,0,0-5.5-19.8-3.9-38.3,0,0-6.8,22.3-6.3,44.2,0,0-.8-20.1-.9-25.2,0,0-1.2,9-2.2,12.2,0,0-2.4-17.4-1.7-21.6s-2.3,10.7-2.3,10.7Z"/>
      <path id="bright_hair8" class="st36" d="M112.1,96.6s4.9,41.9,1.5,48.2c0,0,7.1,14.1,8.3,27.4,0,0,1.9,6.2,6.8,7.9.7-7.7-1.8-15.3-2.8-19.1s-8.5-22.6-8.5-22.6c0,0,.3-25.4-5.3-41.7Z"/>
      <path id="bright_hair9" class="st36" d="M127.4,80.6s-10.1,53.2,3.7,78.2c0,0-7.2-32.9-3.7-78.2Z"/>
      <path id="bright_hair10" class="st36" d="M146.6,113.9l6.1,10.8-3.1-14.8s18.1,46.7,21.2,79c0,0-2.8-11.1-4.6-12,0,0,2.8,8.6.6,15.1,0,0-6.8-51.5-20.3-78.1Z"/>
      <path id="bright_hair11" class="st36" d="M170.8,139.5s4.7,54.4,8.6,58.3c0,0,0-36.6-8.6-58.3Z"/>
      <path id="bright_hair12" class="st36" d="M170.8,123.7l18.1,68.3s-10.9-59.2-18.1-68.3Z"/>
      <path id="bright_hair13" class="st36" d="M179.9,137l9.1,55s-2.8-43.2-9.1-55Z"/>
      <path id="bright_hair14" class="st36" d="M184.4,134.3s10.2,57.4,18.7,61.8c0,0-5-9.5-4.4-14.5,0,0,2.4,7.4,7.1,8.9,0,0-12-14.6-13-34.3,0,0,5.9,25.4,15.4,30.2,0,0-9.8-13.4-10.6-28.5-4.1-18.3-13.1-23.5-13.1-23.5Z"/>
      <path id="bright_hair15" class="st36" d="M162.4,67.2l2.1,10.6-5.7-12.4,2.9,15.2-5.7-10.2,2.8,8.6,16.4,36.4-19.3-30.2v5.2l-6.5-4.9s25.4,31.8,30.5,42c0,0-3.3-10-3-17.6,0,0,7.6,24.4,18.7,27,0,0-28-42.3-33.2-69.8Z"/>
      <path id="bright_hair17" class="st36" d="M217.4,170.9s-34.8-72.5-42.3-83.8c0,0,7.8,10.4,9.3,10.7l-9.3-23.2,7.7,8.3s1.1,2.6,2.8,6.9c8.2,19.8,31,75.8,31.7,81.1Z"/>
      <path id="bright_hair18" class="st36" d="M211.8,123.7l-25.3-31.9-3.6-8.8,7.3,6.8s17.7,29.8,21.6,33.9Z"/>
      <path id="bright_hair20" class="st36" d="M378.4,222.1s24.1,104.2,28.9,110c0,0-4.8-16.9-3.4-24.1,0,0,7.7,36.7,16.9,41.5,0,0-16.4-53.1-16.4-95l-3,34.7-23.1-67.1Z"/>
    </g>
    <g id="dark_hair">
      <path id="dark_hair1" data-name="dark_hair" class="st20" d="M139.5,27.8s-53.8,49.4-54.7,59.1c0,0,10.6-14.6,19.8-19.4,0,0-25.6,34.8-19.8,47.6,0,0,7.1-14.6,13.2-16.8,0,0-11.5,15.4-8.4,22.9,0,0,15.9-34,30-40.1,0,0-1.3,7.5,3.5,8.4,0,0,11.9-40.6,25.6-48.9,0,0,4.5-8.4,8.1-10.5,8-16.9,3.2-20.3-17.4-2.3Z"/>
      <path id="dark_hair2" class="st20" d="M191.5,86.9s-40.2-42.5-35.5-69.4c3.1-8.9,21.8-17.9,29.8-11.8,13.4,9.1,24.9,17.8,33.7,29.7,0,0-18-16.1-22.5-18.3,0,0,38,36.8,42.5,45.2,0,0-21-19.8-27.7-22.5,0,0,52.9,49.4,54.9,54.1,0,0-10.2-8.2-17.4-8.2,0,0,13.9,21.1,17.4,23.8,0,0-35.4-32-38.8-39.1l-19.7-21.1s-7.1-11.3-8.5-18c0,0-2.4,8.5.4,12.4,0,0-16-8.5-20.6-16l-6.5-6.9s10.4,23.4,31.2,44.2l-1.7,17-10.7-17.3s-9.1,1.4-.4,22.3Z"/>
      <path id="dark_hair3" class="st20" d="M185.4,0s-17.5,4.2-19.4,9l28.2,2.4s.6-17,9.6-1.9c4.4,9.1,42,54.3,62.9,61.5,0,0-27.2-24.7-31-32.9,0,0-17.8-17.6-19.8-25.2,0,0,37.9,37.3,73.5,66.4,0,0-54.1-60.9-55.1-63.7s45.3,45.5,52.7,56c0,0-2.2-14.3-11-26.1,0,0,34.3,41.7,37,52.1l1.1-8s18.4,31,18.4,36.8c0,0,0-13-2.5-16.8,0,0,20.3,32.2,23.3,37.9,0,0-28.8-64.5-45-84.8-9.1-11.5-59-57.2-76.5-62.8h-46.5Z"/>
      <path id="dark_hair4" class="st20" d="M260.6,0s49.9,29,77.6,61.9c0,0,13.4,13.2,15.1,17.6,0,0-18.1-34.6-20.6-36.5,0,0,26.6,32.6,29.4,40.9,0,0-21.4-39.3-36.2-61.2,0,0,38.7,53.2,45.3,66.1,0,0-33.7-66.4-65.2-88.8h-45.4Z"/>
      <path id="dark_hair5" class="st20" d="M315.9,0s41.3,41.6,51.4,66.9c0,0,34,70.8,37,78.5,0,0-25.2-78.2-42-103.2,0,0,30,59.1,30,55.4,0,0-6.4-23.1-4-28.5,0,0,23.3,108.2,111.5,182.5l-11.1-30.2s-32.6-21-39.6-31.9c0,0,22.1,13.2,28.1,21.6,0,0-16.2-21.1-41.5-47,0,0,23.1,17.2,29.5,17.5,0,0-33-25.4-38.3-36.2,0,0,6.4,7,10.5,7,0,0-7.9-7.9-7.3-14.9,0,0,19,17.5,29.5,19.6,0,0-50.6-41.8-51.8-61.9,0,0,11.8,13.1,17.3,13.4,0,0-11.7-18.1-10.2-24.8,0,0,15.5,28.1,28.9,36.2,0,0-12.3-13.7-12.3-23.7,0,0,14.3,24.5,23.1,24.8,0,0-33-47.6-46.8-58.7l15.3,9.9-.6-10.5S379.4,13.6,339.6,0h-23.7Z"/>
      <path id="dark_hair6" class="st20" d="M376.2,11.9s72.2,63.1,86.8,88c0,0-18.1-44-86.8-88Z"/>
      <path id="dark_hair7" class="st20" d="M429.4,117.4s62.8,44.4,70.6,66.6c0,0-66.2-60.2-70.6-66.6Z"/>
      <path id="dark_hair8" class="st20" d="M358.9,156.2l20.2,52.1v-8.3s11.8,25.6,14.7,27.2c0,0-22.2-52.5-22.6-56.3,0,0-6.7-6.1-12.3-14.7Z"/>
      <path id="dark_hair9" class="st20" d="M341.3,162.2s22.7,51.2,22.7,59.8c0,0-18.6-25.6-18.9-34.6,0,0,10.6,9.1-3.8-13.4,0,0,2.2-1.6,0-11.8Z"/>
      <path id="dark_hair10" class="st20" d="M404.4,254.5l7.9,13.3s3.3,20.6,5.2,25.2c0,0-8.2-16.6-7.9-23,0,0-3.3,6.3-1.4,14.2,0,0-6.2-22.3-3.8-29.8Z"/>
      <path id="dark_hair11" class="st20" d="M467.3,369c-3.7,10.2-8,19.9-17.2,34.9l-3.1-9.5,3.1,1.6-1.8-11.4s-9.8-12.8-8.9-26.6c0,0,2.4,10.7,7.6,14.4l-2.1-8.9,3.7,3.1s-7.6-12.5-6.1-19.6c0,0,1.5-9.2,7.3-12.8,0,0,1.8,16.8-.3,26,0,0,4.9-15.3,4.6-23.5l2.4,12.2,4.4-10.6s-2.9,29-4.4,31.9c0,0,2-14.5,6-17.2,6.1-1.6,6,7.7,4.9,16.1Z"/>
      <path id="dark_hair12" class="st20" d="M413.8,357.1l3.8,19-6.8-4.5s10.1,17.5,15.7,18.7c0,0-5.6-16-12.7-33.2Z"/>
    </g>
    <g id="darker_hair">
      <path id="darker_hair1" class="st15" d="M205.5,67.9s6.9,66.6,41.3,88.7c0,0-12.7-13.8-12.7-19.6,0,0,10.9,18.8,19.2,19.6,0,0-26.1-34.8-34-55.4l-7.7-17.5s11.2,16.5,11.9,18.5c0,0-2.5-15.5-5.3-21.8l-12.6-12.5Z"/>
      <path id="darker_hair2" class="st15" d="M213.5,46.1l10.6,12.6s2.7,10.6,15.9,25.1c0,0-5-7-3.6-13.9,0,0,4.7.6,16.9,17.6l-9.9-17.9s-13.4-8.8-15.5-14.9l-14.4-12.9v4.4Z"/>
      <path id="darker_hair3" class="st15" d="M300.2,59.4s34.8,39.4,52.8,86.6c0,0-34.6-65.3-52.8-86.6Z"/>
      <path id="darker_hair4" class="st15" d="M290.5,68.7l4.7,1.2s14.8,18.6,18,27.9c0,0-14.6-13.2-17.7-17.6,0,0-4.6-8-5.1-11.5Z"/>
      <path id="darker_hair5" class="st15" d="M365.9,115.3l-1.6,5.2s21.5,38.8,29.8,61.4c0,4.3-6.9-23.8-10.1-30.5,0,0,9,15,10.1,18.6,0,0-14.9-37.4-28.2-54.7Z"/>
      <path id="darker_hair6" class="st15" d="M339.1,14s24,39.9,63.6,128c0,0-26.8-98.2-63.6-128Z"/>
      <path id="darker_hair7" class="st15" d="M421.4,189.9l15.6,31.8s3.1-1.4,4.2-6.7l-19.8-25.1Z"/>
      <path id="darker_hair8" class="st15" d="M395.9,75.1s-4.5,27.3,22.7,73.7c4.5,7.4,32.8,61.7,79.5,99.9,0,0-4.4-10.9-10.1-27,0,0-33.9-21.5-41.1-34.6,0,0,18.7,10.7,23,16.3,0,0-25.4-32.6-37.4-42.2,0,0,28.3,15.9,32.8,20.5,0,0-22.6-16.8-35.8-32.9,0,0-8-11.1,3.2-11.9,0,0,21.6,17.4,27,20.3,0,0-53.7-40.3-63.9-82Z"/>
      <path id="darker_hair9" class="st15" d="M445.6,120.3s-27.7-25-29.3-34.5c0,0,21.4,16.6,29.3,34.5Z"/>
      <path id="darker_hair10" class="st15" d="M423.7,78s1.6,14.4,11.1,19.6c0,0-2.4-14.1-11.1-19.6Z"/>
    </g>
    <g id="hair_top">
      <path id="hair_top1" class="st36" d="M186.5,68.7l-2-13s13.4,33.1,15.7,35.8-8.6-10-11.2-17.8c0,0,1.8,7.1,2.8,9.1s-5-8.4-5.3-14.2Z"/>
      <path id="hair_top2" class="st36" d="M161.2,53.8s4.7,7.2,8.2,8.5c0,0-6.9-10.7-6-16,0,0,23.1,41.8,48.3,59.3,0,0-16.8-9.7-32.4-26.3-6.8-7.3-13.4-15.9-18.2-25.5Z"/>
    </g>
  </g>
  <g id="LET_THE_RIGHT_ONE_IN">
    <path class="st19" d="M49.5,745.9v10h-22.6v-59.8h7.9v49.7h14.7Z"/>
    <path class="st19" d="M62.2,705.9v15.4h12.7v9.3h-12.7v15.7h16.3v9.7h-24.3v-59.8h24.3v9.7h-16.3Z"/>
    <path class="st19" d="M111.4,706.2h-11.1v49.8h-7.9v-49.8h-11.1v-10h30.2v10Z"/>
    <path class="st19" d="M152.4,706.2h-11.1v49.8h-7.9v-49.8h-11.1v-10h30.2v10Z"/>
    <path class="st19" d="M189.7,696.2v59.8h-7.9v-25.7h-16.8v25.7h-7.9v-59.8h7.9v25.4h16.8v-25.4h7.9Z"/>
    <path class="st19" d="M205.7,705.9v15.4h12.7v9.3h-12.7v15.7h16.3v9.7h-24.3v-59.8h24.3v9.7h-16.3Z"/>
    <path class="st19" d="M270.7,756h-7.1c-1.3,0-2.3-.8-2.9-2.4l-7.2-18.3c-.3-.7-.6-1.2-1-1.6-.4-.3-.9-.5-1.6-.5h-2.7v22.8h-7.9v-59.8h12c2.7,0,4.9.4,6.8,1.3,1.9.9,3.4,2.1,4.6,3.6,1.2,1.5,2.1,3.4,2.7,5.5.6,2.1.8,4.5.8,7s-.2,3.9-.5,5.6c-.4,1.8-.9,3.4-1.6,4.8s-1.5,2.7-2.5,3.9-2.1,2-3.4,2.7c.5.4,1,1,1.4,1.6.4.6.8,1.4,1.2,2.2l8.9,21.5ZM252.3,724.5c1.3,0,2.4-.3,3.3-.8.9-.5,1.7-1.2,2.3-2.1.6-.9,1-1.9,1.3-3.2.3-1.2.4-2.5.4-4,0-2.8-.6-5-1.8-6.6-1.2-1.6-3-2.3-5.5-2.3h-4.1v18.9h4Z"/>
    <path class="st19" d="M282.4,756h-7.9v-59.8h7.9v59.8Z"/>
    <path class="st19" d="M308.9,725.5h13.1v24.7c-1.9,2.2-4,3.9-6.2,4.9-2.2,1-4.5,1.5-7,1.5s-6-.8-8.5-2.3c-2.5-1.5-4.7-3.6-6.5-6.4s-3.2-5.9-4.2-9.7c-1-3.7-1.5-7.8-1.5-12.2s.5-8.6,1.4-12.3c.9-3.7,2.3-6.9,4-9.6,1.7-2.7,3.8-4.8,6.3-6.3,2.5-1.5,5.2-2.3,8.3-2.3s3,.2,4.4.6c1.4.4,2.6.9,3.8,1.6,1.2.7,2.2,1.5,3.2,2.5,1,1,1.8,2,2.6,3.2l-2.3,5.5c-.4.9-.8,1.4-1.4,1.6-.6.2-1.2,0-1.8-.7-.6-.6-1.2-1.1-1.9-1.6-.6-.5-1.2-.9-1.9-1.3-.7-.4-1.4-.6-2.2-.8s-1.7-.3-2.8-.3c-1.8,0-3.4.5-4.8,1.4-1.4,1-2.7,2.3-3.7,4.1-1,1.8-1.8,3.9-2.3,6.3s-.8,5.2-.8,8.3.3,6.2.9,8.8c.6,2.6,1.4,4.8,2.5,6.6,1.1,1.8,2.4,3.1,3.9,4.1,1.5.9,3.2,1.4,5.1,1.4s2.4-.2,3.4-.6c1-.4,2-.9,2.9-1.6v-10h-4.3c-.5,0-.9-.2-1.2-.6-.3-.4-.4-1-.4-1.6v-6.9Z"/>
    <path class="st19" d="M361,696.2v59.8h-7.9v-25.7h-16.8v25.7h-7.9v-59.8h7.9v25.4h16.8v-25.4h7.9Z"/>
    <path class="st19" d="M396,706.2h-11.1v49.8h-7.9v-49.8h-11.1v-10h30.2v10Z"/>
    <path class="st19" d="M448.4,726.1c0,4.4-.5,8.4-1.4,12.1-.9,3.7-2.3,7-4,9.7-1.7,2.7-3.8,4.9-6.2,6.4-2.4,1.6-5.1,2.3-8,2.3s-5.6-.8-8-2.3c-2.4-1.6-4.5-3.7-6.2-6.4-1.7-2.7-3-5.9-4-9.7-.9-3.7-1.4-7.8-1.4-12.1s.5-8.4,1.4-12.1c.9-3.7,2.3-6.9,4-9.7,1.7-2.7,3.8-4.9,6.2-6.4,2.4-1.6,5.1-2.3,8-2.3s5.6.8,8,2.3c2.4,1.6,4.5,3.7,6.2,6.4,1.7,2.7,3,6,4,9.7.9,3.7,1.4,7.7,1.4,12.1ZM440.3,726.1c0-3.1-.3-5.9-.8-8.4-.5-2.5-1.3-4.6-2.3-6.3-1-1.7-2.2-3.1-3.6-4-1.4-.9-3-1.4-4.8-1.4s-3.4.5-4.8,1.4c-1.4.9-2.6,2.3-3.6,4-1,1.7-1.7,3.9-2.3,6.3-.5,2.5-.8,5.3-.8,8.4s.3,6,.8,8.5c.5,2.5,1.3,4.6,2.3,6.3,1,1.7,2.2,3.1,3.6,4s3,1.4,4.8,1.4,3.4-.5,4.8-1.4,2.6-2.2,3.6-4c1-1.7,1.7-3.8,2.3-6.3.5-2.5.8-5.3.8-8.5Z"/>
    <path class="st19" d="M486.8,696.2v59.8h-4.1c-.6,0-1.1-.2-1.5-.5-.4-.3-.8-.9-1.2-1.6l-19-37.9c0,1,0,1.9.1,2.8,0,.9,0,1.8,0,2.6v34.6h-7v-59.8h4.1c.3,0,.6,0,.9,0,.2,0,.5.1.6.3.2.2.4.3.6.6s.4.6.6,1l19.1,38.1c0-1-.1-2.1-.2-3s0-1.9,0-2.8v-34.2h7Z"/>
    <path class="st19" d="M502.7,705.9v15.4h12.7v9.3h-12.7v15.7h16.3v9.7h-24.3v-59.8h24.3v9.7h-16.3Z"/>
    <path class="st19" d="M545.3,756h-7.9v-59.8h7.9v59.8Z"/>
    <path class="st19" d="M585.9,696.2v59.8h-4.1c-.6,0-1.1-.2-1.5-.5-.4-.3-.8-.9-1.2-1.6l-19-37.9c0,1,0,1.9.1,2.8,0,.9,0,1.8,0,2.6v34.6h-7v-59.8h4.1c.3,0,.6,0,.9,0,.2,0,.5.1.6.3.2.2.4.3.6.6s.4.6.6,1l19.1,38.1c0-1-.1-2.1-.2-3s0-1.9,0-2.8v-34.2h7Z"/>
  </g>
</svg>