<?xml version="1.0" encoding="UTF-8"?>
<svg id="Layer_2" data-name="Layer 2" xmlns="http://www.w3.org/2000/svg" viewBox="0 0 253.83 189.11">
  <defs>
    <style>
      .cls-1 {
        fill: #081dc3;
      }
    </style>
  </defs>
  <g id="Layer_1-2" data-name="Layer 1-2">
    <path class="cls-1" d="M116.75,37.17c0,9.07,3.17,63.77-32.51,108.2C50.77,187.07,7.88,188.79,0,188.94v-38.17c4.88-.04,33.6.91,58.38-35.76,21.9-32.41,20.88-71.13,20.17-77.84h38.21-.01Z"/>
    <rect class="cls-1" y="0" width="116.75" height="38.21"/>
    <rect class="cls-1" x="136.38" width="38.21" height="189.11"/>
    <g>
      <path class="cls-1" d="M253.82,189.11h-116.75v-37.51h78.36c-1.44-41.68-34.92-37.06-77.83-38.11v-37.51c.18,0-.18,0,0,0,64.4,0,115.97,12.99,116.21,75.62v37.51h.01Z"/>
      <polygon class="cls-1" points="253.82 151.47 253.82 151.46 253.83 151.47 253.82 151.47"/>
    </g>
    <path class="cls-1" d="M253.82,0h-116.75v37.51h78.36c-1.44,41.68-34.92,37.06-77.83,38.11v37.51c.18,0-.18,0,0,0,64.4,0,115.97-12.99,116.21-75.62V0h.01Z"/>
  </g>
</svg>