<?xml version="1.0" encoding="UTF-8"?>
<svg id="Layer_2" xmlns="http://www.w3.org/2000/svg" version="1.1" viewBox="0 0 253.8 189.1">
  <!-- Generator: Adobe Illustrator 30.2.1, SVG Export Plug-In . SVG Version: 2.1.1 Build 1)  -->
  <defs>
    <style>
      .st0 {
        fill: #1d40b4;
      }
    </style>
  </defs>
  <g id="Layer_1-2">
    <path class="st0" d="M116.8,37.2c0,9.1,3.2,63.8-32.5,108.2C50.8,187.1,7.9,188.8,0,188.9v-38.2c4.9,0,33.6.9,58.4-35.8,21.9-32.4,20.9-71.1,20.2-77.8h38.2,0Z"/>
    <rect class="st0" width="116.8" height="38.2"/>
    <rect class="st0" x="136.4" width="38.2" height="189.1"/>
    <g>
      <path class="st0" d="M253.8,189.1h-116.8v-37.5h78.4c-1.4-41.7-34.9-37.1-77.8-38.1v-37.5c.2,0-.2,0,0,0,64.4,0,116,13,116.2,75.6v37.5h0Z"/>
      <polygon class="st0" points="253.8 151.5 253.8 151.5 253.8 151.5 253.8 151.5"/>
    </g>
    <path class="st0" d="M253.8,0h-116.8v37.5h78.4c-1.4,41.7-34.9,37.1-77.8,38.1v37.5c.2,0-.2,0,0,0,64.4,0,116-13,116.2-75.6V0h0Z"/>
  </g>
</svg>