<?xml version="1.0" encoding="UTF-8"?>
<svg id="Layer_2" data-name="Layer 2" xmlns="http://www.w3.org/2000/svg" viewBox="0 0 407.61 407.61">
  <defs>
    <style>
      .cls-1 {
        fill: none;
        stroke: #000;
        stroke-miterlimit: 10;
        stroke-width: 17px;
      }
    </style>
  </defs>
  <g id="Layer_1-2" data-name="Layer 1">
    <g>
      <path d="M193.64,146.43c0,9.07,3.17,63.77-32.51,108.2-33.48,41.7-76.36,43.41-84.24,43.56v-38.17c4.88-.04,33.6.91,58.38-35.76,21.9-32.41,20.88-71.13,20.17-77.84h38.21Z"/>
      <rect x="76.89" y="109.25" width="116.75" height="38.21"/>
      <rect x="137.82" y="184.7" width="189.11" height="38.21" transform="translate(28.57 436.18) rotate(-90)"/>
      <g>
        <path d="M330.71,298.36h-116.75v-37.51h78.36c-1.44-41.68-34.92-37.06-77.83-38.11v-37.51c.18,0-.18,0,0,0,64.4,0,115.97,12.99,116.21,75.62v37.51Z"/>
        <polygon points="330.72 260.72 330.71 260.71 330.72 260.72 330.72 260.72"/>
      </g>
      <g>
        <path d="M330.71,109.25h-116.75v37.51h78.36c-1.44,41.68-34.92,37.06-77.83,38.11v37.51c.18,0-.18,0,0,0,64.4,0,115.97-12.99,116.21-75.62v-37.51Z"/>
        <polygon points="330.72 146.89 330.71 146.9 330.72 146.89 330.72 146.89"/>
      </g>
    </g>
    <circle class="cls-1" cx="203.81" cy="203.81" r="195.31"/>
  </g>
</svg>